<?xml version="1.0" encoding="UTF-8"?><svg xmlns="http://www.w3.org/2000/svg" width="1600" height="900" viewBox="0 0 1600 900"><defs><style>.cls-1{fill:#ffe0e0;}.cls-2{fill:#e98c98;}.cls-3{fill:#e98698;}.cls-4{fill:#eea6b0;}.cls-5{fill:#fff;}.cls-6,.cls-7{fill:#ffc9cc;}.cls-8{fill:#ff8c99;}.cls-9{fill:#c0dbec;}.cls-10{fill:#c9e0ef;}.cls-11{fill:#f8d0da;stroke-width:4px;}.cls-11,.cls-7{stroke:#e0a7ad;stroke-miterlimit:10;}.cls-7{stroke-width:3px;}</style></defs><g id="Layer_1"><rect class="cls-10" x="0" y="0" width="1600" height="900"/></g><g id="Layer_31"><path class="cls-6" d="m1233.29,448.58c-7.74,2.9-7.25,31.24,1.74,37.9,3.3,2.44,7.07,2.17,20.22,4.41,20.8,3.54,30.5,5.29,41.74,8.56,13.25,3.86,12.29,5.19,24.77,8.62,3.41.94,6.33,1.62,8.85,3.7,3.94,3.25,2.57,6.32,7.11,8.67.65.34,3.92,2.03,7.07,1.22,2.41-.61,3.44-2.36,3.52-2.49,1.55-2.72-1.54-5.3-.03-6.21.34-.2.58-.13,3.53,0,3.06.12,4.59.17,5.3-.01,2.05-.53,3.32-2.26,3.51-3.73.27-2.03-1.5-3.49-1.79-3.72-3.1-2.47-8.86-2.02-8.84-2.46.01-.33,3.17-.2,7.06-1.26,2.16-.59,4.09-1.13,5.29-2.5,1.24-1.42,1.56-3.69-.02-4.96-1.42-1.14-3.86-1.18-7.07-1.22-3.23-.04-5.08.39-5.3.01-.29-.5,3.02-1.24,5.28-3.74.58-.64,1.74-1.95,1.75-3.73,0-.26-.05-3.56-3.56-4.96-2.75-1.09-5.83-.3-7.07.02-3.61.93-3.59,2.36-7.05,3.74-3.39,1.35-6.77,1.31-10.59,1.27-2.93-.03-5.49-.43-10.6-1.21-.33-.05-3.99-.47-7.07-1.22-27.18-6.63-41.44-9.11-47.76-12.29-26.84-13.5-25.54-24.08-29.99-22.41Z"/><path class="cls-4" d="m1364.32,500.17c-1.47,1.68-3.69,2.41-5.76,2.99.71.33,1.4.73,2.02,1.22.65.51,2.74,2.4,2.37,5-.26,1.92-1.95,4.35-5.05,5.15-1.11.29-2.51.26-6.21.11l-1.26-.06s.03.09.05.14c.45,1.24,1.13,3.11,0,5.09-.15.26-1.54,2.59-4.9,3.44-2.78.71-6.05.19-9.21-1.44-3.08-1.59-4-3.51-4.82-5.21-.61-1.28-1.19-2.49-2.69-3.72-1.95-1.61-4.25-2.23-7.16-3.03l-.76-.21c-6.51-1.79-9.45-3.02-12.57-4.32-2.89-1.21-5.87-2.46-12.25-4.31-10.87-3.17-19.99-4.84-41.4-8.48-3.82-.65-6.86-1.09-9.3-1.44-6.14-.89-9.22-1.33-12.05-3.43-7.38-5.47-9.06-22.48-6.97-31.78,1.07-4.77,3.03-7.72,5.82-8.77h0c3.66-1.37,5.59,1.07,7.46,3.44,3,3.79,8.58,10.85,24.95,19.09,4.03,2.03,11.93,3.84,25.01,6.86,6.34,1.46,13.52,3.11,22.16,5.22,2.52.61,5.47,1,6.44,1.12l.37.05c4.96.76,7.45,1.15,10.15,1.18,3.68.04,6.58.07,9.42-1.06,1.26-.5,1.91-.99,2.67-1.55,1.05-.78,2.23-1.66,4.73-2.3,1.45-.37,5.31-1.36,8.98.09,4.66,1.85,4.74,5.97,4.76,6.43-.01,2.3-1.55,4-2.12,4.63-.38.42-.79.81-1.21,1.15,3.17.05,6.12.19,8.09,1.77,1.17.94,1.66,2.15,1.67,3.37,0,1.3-.54,2.61-1.41,3.6Zm-14.58-9.27c1.03-.52,2.44-1.24,3.53-2.44.44-.49,1.36-1.5,1.37-2.82.02-.03,0-2.55-2.36-3.48-1.82-.73-4.16-.13-5.15.13-1.47.38-2.05.81-2.94,1.48-.84.63-1.89,1.41-3.76,2.15-3.93,1.57-7.74,1.52-11.76,1.48-3.16-.04-5.8-.44-11.04-1.25l-.24-.03c-1.05-.14-4.27-.55-7.11-1.25-8.6-2.1-15.76-3.75-22.08-5.2-13.5-3.11-21.66-4.99-26.26-7.3-17.23-8.67-23.15-16.15-26.33-20.18-.56-.71-1.19-1.5-1.62-1.93-.96.65-2.2,2.54-3.01,6.14-2.14,9.53.08,24.74,5.72,28.92,1.75,1.3,3.57,1.61,9.62,2.48,2.48.36,5.56.8,9.46,1.47,21.66,3.68,30.9,5.38,42.08,8.64,6.68,1.94,9.81,3.25,12.84,4.52,2.95,1.23,5.74,2.4,11.89,4.09l.75.21c3.24.88,6.31,1.72,9.02,3.96,2.09,1.72,2.88,3.37,3.58,4.83.73,1.52,1.26,2.61,3.13,3.59,1.86.96,3.66,1.33,4.93,1,1.44-.37,2.14-1.54,2.14-1.55.54-.96.17-1.99-.19-2.99-.42-1.17-1-2.77.82-3.86.98-.59,1.84-.55,3.56-.47l1.6.07c1.56.06,3.91.16,4.38.08,1.07-.27,1.86-1.42,1.98-2.32.16-1.29-.97-2.26-1.2-2.44-1.56-1.24-4.34-1.5-6-1.65-1.14-.1-3.51-.31-3.44-1.98.07-1.53,2.2-1.76,3.46-1.89,1.22-.13,3.06-.32,5.1-.88,2.08-.57,3.39-.96,4.14-1.82.83-.94.93-2.39.21-2.96-.75-.61-2.89-.63-5.37-.66-1.31-.02-2.36.05-3.21.11-1.45.09-3.43.22-4.21-1.13-.14-.25-.21-.49-.21-.71,0-1.04,1.36-1.73,2.16-2.13Z"/><path class="cls-6" d="m1208.16,408.62c4.57-3.28.68-28.39-5.9-33.5-2.41-1.87-4.78-1.29-13.44-2.08-13.7-1.26-20.11-1.93-27.68-3.82-8.93-2.22-8.49-3.49-16.88-5.41-2.29-.52-4.24-.87-6.11-2.48-2.92-2.53-2.43-5.38-5.63-7.05-.46-.24-2.75-1.44-4.66-.44-1.46.76-1.9,2.41-1.93,2.53-.65,2.56,1.65,4.56.8,5.51-.19.21-.36.17-2.25.33-1.97.17-2.95.27-3.38.49-1.24.65-1.83,2.31-1.77,3.63.08,1.83,1.4,2.97,1.61,3.14,2.29,1.92,5.9.99,5.95,1.38.03.29-2,.46-4.34,1.76-1.3.72-2.46,1.37-3.05,2.7-.61,1.37-.53,3.42.64,4.41,1.05.89,2.61.7,4.66.44,2.06-.26,3.19-.81,3.38-.49.25.42-1.77,1.37-2.89,3.8-.29.62-.86,1.89-.64,3.47.03.23.48,3.16,2.89,4.08,1.89.72,3.75-.26,4.5-.66,2.19-1.15,1.99-2.42,4.02-3.96,1.99-1.51,4.15-1.78,6.59-2.09,1.87-.24,3.55-.12,6.91.12.22.02,2.6.06,4.66.44,18.16,3.42,27.56,4.33,31.99,6.58,18.81,9.55,19.32,19.07,21.95,17.18Z"/><path class="cls-4" d="m1118.13,374.68c.72-1.62,2.05-2.47,3.3-3.17-.5-.23-.98-.52-1.44-.9-.48-.4-2.05-1.88-2.14-4.22-.08-1.73.69-4.04,2.57-5.03.67-.35,1.57-.46,3.95-.66l.81-.06s-.03-.08-.05-.12c-.44-1.06-1.11-2.66-.64-4.52.06-.25.66-2.44,2.69-3.5,1.68-.88,3.83-.72,6.05.45,2.16,1.13,2.99,2.76,3.73,4.19.55,1.08,1.08,2.1,2.18,3.06,1.44,1.25,2.99,1.6,4.95,2.04l.51.12c4.37,1,6.41,1.83,8.56,2.7,1.99.81,4.05,1.65,8.35,2.72,7.33,1.83,13.35,2.49,27.46,3.78,2.52.23,4.51.34,6.11.44,4.02.23,6.04.35,8.12,1.95,5.4,4.19,8.61,19.14,8.46,27.59-.08,4.33-.96,7.13-2.6,8.31h0c-2.16,1.55-3.7-.44-5.19-2.38-2.39-3.1-6.84-8.86-18.31-14.69-2.82-1.43-8.09-2.33-16.81-3.82-4.22-.72-9.01-1.54-14.78-2.63-1.68-.32-3.61-.39-4.25-.41h-.24c-3.26-.24-4.89-.35-6.62-.14-2.35.3-4.2.53-5.87,1.79-.74.56-1.09,1.05-1.5,1.62-.57.79-1.21,1.68-2.72,2.48-.88.46-3.21,1.69-5.73.73-3.2-1.22-3.78-4.87-3.84-5.27-.28-2.05.48-3.69.77-4.31.19-.41.4-.79.63-1.13-2.03.25-3.92.39-5.38-.84-.86-.73-1.33-1.76-1.49-2.84-.17-1.15.02-2.36.44-3.32Zm10.46,6.91c-.59.56-1.4,1.32-1.94,2.49-.22.47-.68,1.46-.52,2.63,0,.03.33,2.27,1.94,2.88,1.25.48,2.66-.26,3.27-.58.89-.47,1.21-.91,1.69-1.58.46-.63,1.03-1.42,2.12-2.25,2.31-1.75,4.74-2.06,7.31-2.38,2.02-.25,3.75-.13,7.2.11h.15c.69.03,2.79.11,4.69.47,5.75,1.08,10.52,1.9,14.73,2.62,9,1.54,14.43,2.46,17.66,4.1,12.08,6.13,16.79,12.24,19.33,15.53.45.58.95,1.23,1.28,1.56.53-.66,1.08-2.45,1.14-5.72.16-8.65-3.17-21.97-7.3-25.17-1.28-.99-2.48-1.1-6.45-1.33-1.62-.09-3.64-.21-6.21-.44-14.27-1.31-20.38-1.98-27.91-3.85-4.5-1.12-6.66-2-8.76-2.85-2.04-.83-3.96-1.61-8.1-2.56l-.51-.11c-2.18-.49-4.24-.96-6.25-2.7-1.55-1.34-2.26-2.73-2.89-3.96-.66-1.28-1.13-2.21-2.45-2.9-1.31-.69-2.5-.85-3.27-.44-.87.46-1.17,1.56-1.17,1.57-.23.9.14,1.78.5,2.64.42,1,.99,2.37-.03,3.5-.55.61-1.1.66-2.21.74l-1.03.08c-1,.09-2.51.21-2.8.33-.65.34-1.01,1.43-.97,2.24.06,1.16.9,1.92,1.07,2.06,1.15.96,2.96.94,4.04.92.74-.01,2.27-.04,2.44,1.45.15,1.37-1.18,1.76-1.97,1.99-.76.22-1.91.56-3.14,1.24-1.25.69-2.04,1.16-2.41,1.99-.41.91-.29,2.2.24,2.65.56.47,1.92.3,3.51.1.83-.1,1.5-.26,2.03-.39.91-.21,2.16-.51,2.82.62.12.21.19.42.22.61.13.92-.65,1.66-1.11,2.09Z"/><ellipse class="cls-7" cx="1165.73" cy="462.05" rx="116.5" ry="68" transform="translate(-33.07 829.87) rotate(-38.68)"/><ellipse class="cls-1" cx="1144.68" cy="473.11" rx="84.94" ry="56.39" transform="translate(-44.6 819.14) rotate(-38.68)"/><rect class="cls-9" x="488" y="158" width="690" height="525" rx="42.71" ry="42.71"/><path class="cls-11" d="m663.12,190.31c1.06-4.05,3.04-7.05,5.92-8.99,2.88-1.94,6.12-2.91,9.75-2.91,3.41,0,6.66.93,9.75,2.77,3.09,1.85,5.17,4.61,6.24,8.3,0,26.01-.21,51.33-.64,75.95-.43,24.62-1.49,50.04-3.2,76.23-.21.93-.32,1.62-.32,2.08v1.25c-1.49,3.51-3.63,6.13-6.4,7.89-2.77,1.75-5.65,2.63-8.63,2.63-4.91,0-9.59-1.94-14.07-5.81l-2.24-3.32c-7.25-10.51-14.66-20.66-22.22-30.44-7.57-9.77-15.35-19.27-23.34-28.5-7.99-9.22-16.15-18.4-24.46-27.53-8.31-9.13-16.74-18.3-25.26-27.53v46.48c0,9.59.05,19.55.16,29.88.1,10.33.16,21.58.16,33.75-.21,4.8-1.97,8.3-5.28,10.51-3.31,2.21-6.77,3.32-10.39,3.32-3.84,0-7.3-1.06-10.39-3.18-3.09-2.12-4.96-5.3-5.6-9.54,0-12.17-.05-24.49-.16-36.94-.11-12.45-.16-25.04-.16-37.77v-74.98c1.06-3.69,2.98-6.5,5.76-8.44,2.77-1.94,6.08-2.91,9.91-2.91,3.2,0,7.24,1.38,12.15,4.15l9.91,9.96c16.41,16.97,32.19,33.62,47.33,49.94,15.13,16.32,29.74,33.71,43.81,52.16.64-18.63,1.12-36.57,1.44-53.82.32-17.25.48-35.37.48-54.37v-.28Z"/><path class="cls-11" d="m901.99,279.95c-1.92,6.46-4.64,13.24-8.15,20.34-3.52,7.1-7.73,13.93-12.63,20.47-4.91,6.55-10.55,12.5-16.95,17.85-6.39,5.35-13.43,9.41-21.1,12.17-6.61,2.21-13.06,4.05-19.35,5.53-6.29,1.47-12.74,2.21-19.35,2.21-5.55,0-11.14-.74-16.79-2.21-5.65-1.48-11.35-3.04-17.11-4.7-8.95-2.77-16.47-6.78-22.54-12.04-6.08-5.26-10.98-11.16-14.71-17.71-3.73-6.54-6.45-13.51-8.15-20.89-1.71-7.38-2.56-14.75-2.56-22.13,0-2.58.1-5.26.32-8.02.21-2.77.53-5.44.96-8.02,1.06-5.72,3.04-11.94,5.92-18.68,2.88-6.73,6.4-13.32,10.55-19.78,4.16-6.45,8.84-12.45,14.07-17.98,5.22-5.53,10.71-10.05,16.47-13.56,7.46-4.24,15.51-7.47,24.14-9.68,8.63-2.21,17.53-3.32,26.7-3.32,14.71,0,28.56,3.14,41.57,9.41,13,6.27,23.34,15.22,31.02,26.84,3.62,5.91,6.24,12.17,7.83,18.81s2.4,13.19,2.4,19.64c0,4.25-.21,8.49-.64,12.73-.43,4.25-1.07,8.49-1.92,12.73Zm-72.47,49.25c7.66-3.5,14.25-8.11,19.78-13.83,5.53-5.72,10.1-11.94,13.71-18.68,3.61-6.73,6.27-13.74,7.97-21.03,1.7-7.28,2.55-14.25,2.55-20.89,0-4.79-.53-9.54-1.59-14.25-1.06-4.7-2.76-9.17-5.1-13.42-4.9-7.75-11.65-13.65-20.26-17.71-8.61-4.05-17.7-6.09-27.27-6.09-5.53,0-10.85.79-15.95,2.35-5.1,1.57-9.99,3.73-14.67,6.5-5.53,3.69-10.47,8.26-14.83,13.7-4.36,5.44-8.02,11.21-11,17.29s-5.27,12.31-6.86,18.68-2.39,12.41-2.39,18.12c0,7.19,1.06,14.07,3.19,20.61,2.13,6.55,5.42,12.31,9.89,17.29,4.46,4.98,10.04,8.95,16.74,11.9,6.7,2.95,14.72,4.43,24.08,4.43,3.61,0,7.38-.46,11.32-1.38,3.93-.92,7.49-2.12,10.68-3.6Z"/><path class="cls-11" d="m1153.33,342.21c-.21,4.8-1.97,8.3-5.28,10.51-3.31,2.21-6.88,3.32-10.71,3.32-3.63,0-7.04-1.06-10.23-3.18-3.2-2.12-5.01-5.4-5.44-9.82-1.07-7.93-2.29-16.42-3.68-25.46-1.39-9.04-2.93-18.21-4.64-27.53-1.71-9.31-3.68-18.54-5.92-27.67-2.24-9.13-4.64-17.75-7.19-25.87-3.41,7.01-6.67,14.16-9.75,21.44-3.09,7.29-6.35,14.8-9.75,22.55-4.27,9.96-8.53,19.92-12.79,29.88-4.27,9.96-8.63,19.46-13.11,28.5-3.84,3.69-8.42,5.53-13.75,5.53-4.05,0-8.42-1.75-13.11-5.26l-57.88-98.22c-.85,7.93-1.71,16-2.56,24.21-.85,8.21-1.71,16.56-2.56,25.04l-6.08,56.17c-1.71,3.69-4,6.41-6.88,8.16-2.88,1.75-5.81,2.63-8.79,2.63-3.84,0-7.3-1.11-10.39-3.32-3.09-2.21-4.85-5.44-5.28-9.68l16.31-148.3c.64-3.5,2.45-6.23,5.44-8.16,2.98-1.94,6.4-2.91,10.23-2.91,5.54,0,10.12,2.21,13.75,6.64,5.97,9.04,11.83,18.49,17.59,28.36,5.76,9.87,11.62,19.88,17.59,30.02,5.54,9.59,10.71,18.49,15.51,26.7,4.8,8.21,9.96,16.65,15.51,25.32,3.2-7.01,6.4-14.2,9.59-21.58,3.2-7.38,6.5-14.94,9.91-22.69,4.9-11.44,9.86-22.78,14.87-34.03,5.01-11.25,10.07-22.04,15.19-32.37,3.41-4.98,8.31-7.47,14.71-7.47,3.2,0,6.24.88,9.11,2.63,2.88,1.75,4.96,4.38,6.24,7.89,3.84,11.25,7.51,23.06,11.03,35.42,3.52,12.36,6.82,24.9,9.91,37.63,3.09,12.73,5.76,25.45,7.99,38.18s4,25,5.28,36.8Z"/><path class="cls-11" d="m614.33,638.68c-.21,2.4-1.03,4.2-2.46,5.4-1.43,1.2-3.16,1.8-5.17,1.8-1.49,0-2.94-.39-4.37-1.15-1.43-.77-2.57-1.97-3.42-3.6-.53-4.32-1.35-8.55-2.46-12.68-1.11-4.13-2.52-8.35-4.21-12.68-6.68,0-13.36.05-20.03.14-6.68.1-13.41.14-20.19.14h-.32c-1.27,4.03-2.46,7.9-3.58,11.6-1.11,3.7-2.15,7.66-3.1,11.88-.85,2.11-1.96,3.65-3.34,4.61-1.38.96-2.86,1.44-4.45,1.44-2.23,0-4.16-.79-5.8-2.38-1.64-1.58-2.15-3.67-1.51-6.27,3.39-13.73,7.52-27.13,12.4-40.19,4.87-13.06,11.02-25.97,18.44-38.75l-.16.14c.85-2.02,2.7-3.31,5.57-3.89h-.16c2.86-.86,5.41-.38,7.63,1.44,2.65,2.31,5.11,4.88,7.39,7.71,2.28,2.83,4.4,5.76,6.36,8.79,1.96,3.03,3.79,6.08,5.49,9.15,1.69,3.07,3.28,6,4.77,8.79.95,1.83,1.96,3.87,3.02,6.12,1.06,2.26,2.07,4.49,3.02,6.7,1.17,0,2.44-.02,3.82-.07,1.38-.05,2.65-.07,3.82-.07,2.23.67,3.87,1.58,4.93,2.74,1.06,1.15,1.59,2.4,1.59,3.75s-.58,2.62-1.75,3.82c-1.17,1.2-2.97,2.04-5.41,2.52h-1.91c2.65,7.49,4.5,15.17,5.56,23.05Zm-36.73-54.16c-1.27-2.11-2.57-4.22-3.89-6.34-1.33-2.11-2.62-3.98-3.9-5.62-2.54,4.9-4.9,9.87-7.08,14.91-2.17,5.04-4.32,10.3-6.44,15.77,5.41,0,10.57-.05,15.5-.14,4.93-.09,10.1-.14,15.5-.14-1.27-2.78-2.6-5.42-3.98-7.92-1.38-2.5-2.76-5.14-4.13-7.92l-1.59-2.59Z"/><path class="cls-11" d="m698.75,556.72c1.59-1.34,3.6-2.02,6.04-2.02,2.12,0,3.87.58,5.25,1.73,1.38,1.15,2.07,2.64,2.07,4.47,0,.77-.27,1.78-.79,3.02-4.45,6.63-9.04,12.73-13.75,18.29-4.72,5.57-9.73,11.33-15.02,17.29,5.41,6.05,10.65,12.12,15.74,18.22,5.09,6.1,9.59,12.46,13.51,19.09.21.77.32,1.54.32,2.3,0,1.92-.69,3.46-2.07,4.61-1.38,1.15-3.13,1.73-5.25,1.73-2.54,0-4.82-.96-6.84-2.88-3.39-5.67-7.29-11.16-11.69-16.49-4.4-5.33-8.88-10.59-13.43-15.77-3.08,3.36-6.33,6.84-9.78,10.44-3.45,3.6-6.76,7.04-9.94,10.3-2.01,2.11-3.95,4.13-5.8,6.05-1.86,1.92-3.79,3.99-5.8,6.19-2.12,1.15-4.08,1.73-5.88,1.73-2.23,0-4.03-.55-5.41-1.66-1.38-1.1-2.07-2.57-2.07-4.39,0-1.25.53-2.64,1.59-4.18l10.81-11.52c3.71-3.94,7.47-7.92,11.29-11.96,3.82-4.03,7.58-8.07,11.29-12.1-4.98-5.95-10.02-11.6-15.1-16.92-5.09-5.33-10.71-10.39-16.85-15.2-2.01-1.73-3.02-3.5-3.02-5.33,0-1.63.69-3.05,2.07-4.25,1.38-1.2,3.18-1.8,5.41-1.8s4.13.58,5.72,1.73c6.15,4.9,11.69,9.84,16.61,14.84,4.93,4.99,9.94,10.42,15.02,16.28l2.23-2.59c4.03-4.61,7.92-9.17,11.69-13.68,3.76-4.51,7.6-9.65,11.53-15.41l.32-.14Z"/><path class="cls-11" d="m808.14,606.71c-.95,3.36-2.31,6.89-4.05,10.59-1.75,3.7-3.84,7.25-6.28,10.66-2.44,3.41-5.25,6.51-8.43,9.29-3.18,2.79-6.68,4.9-10.49,6.34-3.29,1.15-6.49,2.11-9.62,2.88-3.13.77-6.33,1.15-9.62,1.15-2.76,0-5.54-.39-8.35-1.15-2.81-.77-5.64-1.58-8.51-2.45-4.45-1.44-8.19-3.53-11.21-6.27-3.02-2.74-5.46-5.81-7.31-9.22-1.86-3.41-3.21-7.03-4.05-10.88-.85-3.84-1.27-7.68-1.27-11.52,0-1.34.05-2.74.16-4.18.1-1.44.26-2.83.48-4.18.53-2.98,1.51-6.22,2.94-9.72,1.43-3.5,3.18-6.94,5.25-10.3,2.07-3.36,4.4-6.48,7-9.36,2.6-2.88,5.33-5.23,8.19-7.06,3.71-2.21,7.71-3.89,12-5.04,4.29-1.15,8.72-1.73,13.28-1.73,7.31,0,14.2,1.63,20.67,4.9,6.46,3.27,11.61,7.92,15.42,13.97,1.8,3.07,3.1,6.34,3.89,9.79s1.19,6.87,1.19,10.23c0,2.21-.11,4.42-.32,6.63-.21,2.21-.53,4.42-.95,6.63Zm-36.03,25.64c3.81-1.82,7.08-4.22,9.83-7.2,2.75-2.98,5.02-6.22,6.82-9.72,1.8-3.5,3.12-7.15,3.96-10.95.84-3.79,1.27-7.42,1.27-10.88,0-2.5-.27-4.97-.79-7.42-.53-2.45-1.37-4.78-2.54-6.99-2.43-4.03-5.79-7.11-10.07-9.22-4.28-2.11-8.8-3.17-13.56-3.17-2.75,0-5.39.41-7.93,1.22-2.54.82-4.97,1.94-7.29,3.38-2.75,1.92-5.21,4.3-7.37,7.13-2.17,2.83-3.99,5.83-5.47,9s-2.62,6.41-3.41,9.72c-.79,3.31-1.19,6.46-1.19,9.43,0,3.75.53,7.32,1.58,10.73,1.06,3.41,2.7,6.41,4.92,9,2.22,2.59,4.99,4.66,8.32,6.19,3.33,1.54,7.32,2.3,11.97,2.3,1.8,0,3.67-.24,5.63-.72,1.96-.48,3.73-1.1,5.31-1.87Z"/><path class="cls-11" d="m881.75,631.77c2.23.67,3.9,1.59,5.01,2.78,1.11,1.19,1.67,2.45,1.67,3.77s-.61,2.57-1.83,3.71c-1.22,1.14-3.05,1.95-5.48,2.42-4.03.09-8.08.17-12.16.22-4.08.05-8.14.07-12.16.07-3.61.09-7.58.14-11.92.14s-8.37.09-12.08.29c-4.77-.48-7.42-2.69-7.95-6.63,0-6.34.02-12.58.08-18.73.05-6.14.08-12.39.08-18.73.1-6.34.16-12.63.16-18.87v-18.87c.53-1.92,1.48-3.38,2.86-4.39,1.38-1.01,2.97-1.51,4.77-1.51s3.42.46,4.85,1.37c1.43.91,2.52,2.29,3.26,4.11,0,5.96-.03,11.88-.08,17.75-.05,5.87-.08,11.69-.08,17.46-.11,5.87-.16,11.57-.16,17.1v17.1c3.28-.19,6.54-.26,9.78-.22,3.23.05,6.49.02,9.78-.07,3.5,0,7.05-.02,10.65-.07,3.6-.05,7.26-.12,10.97-.22Z"/><path class="cls-11" d="m981.91,606.71c-.95,3.36-2.31,6.89-4.05,10.59-1.75,3.7-3.84,7.25-6.28,10.66-2.44,3.41-5.25,6.51-8.43,9.29-3.18,2.79-6.68,4.9-10.49,6.34-3.29,1.15-6.49,2.11-9.62,2.88-3.13.77-6.33,1.15-9.62,1.15-2.76,0-5.54-.39-8.35-1.15-2.81-.77-5.64-1.58-8.51-2.45-4.45-1.44-8.19-3.53-11.21-6.27-3.02-2.74-5.46-5.81-7.31-9.22-1.86-3.41-3.21-7.03-4.05-10.88-.85-3.84-1.27-7.68-1.27-11.52,0-1.34.05-2.74.16-4.18.1-1.44.26-2.83.48-4.18.53-2.98,1.51-6.22,2.94-9.72,1.43-3.5,3.18-6.94,5.25-10.3,2.07-3.36,4.4-6.48,7-9.36,2.6-2.88,5.33-5.23,8.19-7.06,3.71-2.21,7.71-3.89,12-5.04,4.29-1.15,8.72-1.73,13.28-1.73,7.31,0,14.2,1.63,20.67,4.9,6.46,3.27,11.61,7.92,15.42,13.97,1.8,3.07,3.1,6.34,3.89,9.79s1.19,6.87,1.19,10.23c0,2.21-.11,4.42-.32,6.63-.21,2.21-.53,4.42-.95,6.63Zm-36.03,25.64c3.81-1.82,7.08-4.22,9.83-7.2,2.75-2.98,5.02-6.22,6.82-9.72,1.8-3.5,3.12-7.15,3.96-10.95.84-3.79,1.27-7.42,1.27-10.88,0-2.5-.27-4.97-.79-7.42-.53-2.45-1.37-4.78-2.54-6.99-2.43-4.03-5.79-7.11-10.07-9.22-4.28-2.11-8.8-3.17-13.56-3.17-2.75,0-5.39.41-7.93,1.22-2.54.82-4.97,1.94-7.29,3.38-2.75,1.92-5.21,4.3-7.37,7.13-2.17,2.83-3.99,5.83-5.47,9s-2.62,6.41-3.41,9.72c-.79,3.31-1.19,6.46-1.19,9.43,0,3.75.53,7.32,1.58,10.73,1.06,3.41,2.7,6.41,4.92,9,2.22,2.59,4.99,4.66,8.32,6.19,3.33,1.54,7.32,2.3,11.97,2.3,1.8,0,3.67-.24,5.63-.72,1.96-.48,3.73-1.1,5.31-1.87Z"/><path class="cls-11" d="m1064.42,558.02c2.12.67,3.74,1.62,4.85,2.85,1.11,1.23,1.61,2.47,1.51,3.7-.11,1.42-.77,2.68-1.99,3.77-1.22,1.09-3.05,1.88-5.48,2.35l-23.37.14c0,11.45.03,22.93.08,34.42.05,11.5.08,22.97.08,34.42-.11,2.5-.98,4.33-2.62,5.49-1.64,1.15-3.42,1.73-5.33,1.73-1.8,0-3.47-.55-5.01-1.66-1.54-1.11-2.46-2.77-2.78-4.98l-.16-69.42h-23.69c-2.65-.47-4.59-1.33-5.8-2.56-1.22-1.23-1.78-2.61-1.67-4.13.1-1.52.85-2.9,2.23-4.13,1.38-1.23,3.55-1.85,6.52-1.85h27.98c7.52,0,13.67-.02,18.44-.07,4.77-.05,8.4-.07,10.89-.07h5.33Z"/><path class="cls-11" d="m1137.56,631.77c2.23.67,3.9,1.59,5.01,2.78,1.11,1.19,1.67,2.45,1.67,3.77s-.61,2.57-1.83,3.71c-1.22,1.14-3.05,1.95-5.48,2.42-4.03.09-8.08.17-12.16.22-4.08.05-8.14.07-12.16.07-3.61.09-7.58.14-11.92.14s-8.37.09-12.08.29c-4.77-.48-7.42-2.69-7.95-6.63,0-6.34.02-12.58.08-18.73.05-6.14.08-12.39.08-18.73.1-6.34.16-12.63.16-18.87v-18.87c.53-1.92,1.48-3.38,2.86-4.39,1.38-1.01,2.97-1.51,4.77-1.51s3.42.46,4.85,1.37c1.43.91,2.52,2.29,3.26,4.11,0,5.96-.03,11.88-.08,17.75-.05,5.87-.08,11.69-.08,17.46-.11,5.87-.16,11.57-.16,17.1v17.1c3.28-.19,6.54-.26,9.78-.22,3.23.05,6.49.02,9.78-.07,3.5,0,7.05-.02,10.65-.07,3.6-.05,7.26-.12,10.97-.22Z"/><path class="cls-11" d="m657.94,376.26c1.06-4.05,3.04-7.05,5.92-8.99,2.88-1.94,6.12-2.91,9.75-2.91,3.41,0,6.66.93,9.75,2.77,3.09,1.85,5.17,4.61,6.23,8.3,0,26.01-.21,51.33-.64,75.95-.43,24.62-1.49,50.04-3.2,76.23-.21.93-.32,1.62-.32,2.08v1.25c-1.49,3.51-3.63,6.13-6.4,7.89-2.77,1.75-5.65,2.63-8.63,2.63-4.91,0-9.59-1.94-14.07-5.81l-2.24-3.32c-7.25-10.51-14.66-20.66-22.22-30.44-7.57-9.77-15.35-19.27-23.34-28.5-7.99-9.22-16.15-18.4-24.46-27.53-8.31-9.13-16.74-18.3-25.26-27.53v46.48c0,9.59.05,19.55.16,29.88.1,10.33.16,21.58.16,33.75-.21,4.8-1.97,8.3-5.28,10.51-3.31,2.21-6.77,3.32-10.39,3.32-3.84,0-7.3-1.06-10.39-3.18-3.09-2.12-4.96-5.3-5.6-9.54,0-12.17-.05-24.49-.16-36.94-.11-12.45-.16-25.04-.16-37.77v-74.98c1.06-3.69,2.98-6.5,5.76-8.44,2.77-1.94,6.08-2.91,9.91-2.91,3.2,0,7.24,1.38,12.15,4.15l9.91,9.96c16.41,16.97,32.19,33.62,47.33,49.94,15.13,16.32,29.74,33.71,43.81,52.16.64-18.63,1.12-36.57,1.44-53.82.32-17.25.48-35.37.48-54.37v-.28Z"/><path class="cls-11" d="m896.81,465.9c-1.92,6.46-4.64,13.24-8.15,20.34-3.52,7.1-7.73,13.93-12.63,20.47-4.91,6.55-10.55,12.5-16.95,17.85-6.39,5.35-13.43,9.41-21.1,12.17-6.61,2.21-13.06,4.05-19.35,5.53-6.29,1.47-12.74,2.21-19.35,2.21-5.54,0-11.14-.74-16.79-2.21-5.65-1.48-11.35-3.04-17.11-4.7-8.95-2.77-16.47-6.78-22.54-12.04-6.08-5.26-10.98-11.16-14.71-17.71-3.73-6.54-6.45-13.51-8.15-20.89-1.71-7.38-2.56-14.75-2.56-22.13,0-2.58.1-5.26.32-8.02.21-2.77.53-5.44.96-8.02,1.06-5.72,3.04-11.94,5.92-18.68,2.88-6.73,6.39-13.32,10.55-19.78,4.16-6.45,8.84-12.45,14.07-17.98,5.22-5.53,10.71-10.05,16.47-13.56,7.46-4.24,15.51-7.47,24.14-9.68,8.63-2.21,17.53-3.32,26.7-3.32,14.71,0,28.56,3.14,41.57,9.41,13,6.27,23.34,15.22,31.02,26.84,3.62,5.91,6.23,12.17,7.83,18.81,1.6,6.64,2.4,13.19,2.4,19.64,0,4.25-.21,8.49-.64,12.73-.43,4.25-1.07,8.49-1.92,12.73Zm-72.47,49.25c7.66-3.5,14.25-8.11,19.78-13.83,5.53-5.72,10.1-11.94,13.71-18.68,3.61-6.73,6.27-13.74,7.97-21.03,1.7-7.28,2.55-14.25,2.55-20.89,0-4.79-.53-9.54-1.59-14.25-1.06-4.7-2.76-9.17-5.1-13.42-4.9-7.75-11.65-13.65-20.26-17.71-8.62-4.05-17.7-6.09-27.27-6.09-5.53,0-10.85.79-15.95,2.35-5.1,1.57-9.99,3.73-14.67,6.5-5.53,3.69-10.47,8.26-14.83,13.7-4.36,5.44-8.02,11.21-11,17.29-2.98,6.09-5.27,12.31-6.86,18.68s-2.39,12.41-2.39,18.12c0,7.19,1.06,14.07,3.19,20.61,2.13,6.55,5.42,12.31,9.89,17.29,4.46,4.98,10.04,8.95,16.74,11.9,6.7,2.95,14.72,4.43,24.08,4.43,3.61,0,7.38-.46,11.32-1.38,3.93-.92,7.49-2.12,10.68-3.6Z"/><path class="cls-11" d="m1148.14,528.16c-.21,4.8-1.97,8.3-5.28,10.51-3.31,2.21-6.88,3.32-10.71,3.32-3.63,0-7.04-1.06-10.23-3.18-3.2-2.12-5.01-5.4-5.44-9.82-1.07-7.93-2.29-16.42-3.68-25.46-1.39-9.04-2.93-18.21-4.64-27.53-1.71-9.31-3.68-18.54-5.92-27.67-2.24-9.13-4.64-17.75-7.19-25.87-3.41,7.01-6.67,14.16-9.75,21.44-3.09,7.29-6.35,14.8-9.75,22.55-4.27,9.96-8.53,19.92-12.79,29.88-4.27,9.96-8.63,19.46-13.11,28.5-3.84,3.69-8.42,5.53-13.75,5.53-4.05,0-8.42-1.75-13.11-5.26l-57.88-98.22c-.85,7.93-1.71,16-2.56,24.21-.85,8.21-1.71,16.56-2.56,25.04l-6.07,56.17c-1.71,3.69-4,6.41-6.88,8.16-2.88,1.75-5.81,2.63-8.79,2.63-3.84,0-7.3-1.11-10.39-3.32-3.09-2.21-4.85-5.44-5.28-9.68l16.31-148.3c.64-3.5,2.45-6.23,5.44-8.16,2.98-1.94,6.39-2.91,10.23-2.91,5.54,0,10.12,2.21,13.75,6.64,5.97,9.04,11.83,18.49,17.59,28.36,5.76,9.87,11.62,19.88,17.59,30.02,5.54,9.59,10.71,18.49,15.51,26.7,4.8,8.21,9.96,16.65,15.51,25.32,3.2-7.01,6.4-14.2,9.59-21.58,3.2-7.38,6.5-14.94,9.91-22.69,4.9-11.44,9.86-22.78,14.87-34.03,5.01-11.25,10.07-22.04,15.19-32.37,3.41-4.98,8.31-7.47,14.71-7.47,3.2,0,6.23.88,9.11,2.63,2.88,1.75,4.96,4.38,6.23,7.89,3.84,11.25,7.52,23.06,11.03,35.42,3.52,12.36,6.82,24.9,9.91,37.63,3.09,12.73,5.76,25.45,7.99,38.18s4,25,5.28,36.8Z"/><path class="cls-2" d="m1366.7,319.64c1.07-2.36,2.78-4.98,5.55-5.85,3.36-1.06,6.31,1.03,7.8-.47,1.19-1.2-.54-3.06.55-5.81.89-2.24,3.3-4.15,5.76-4.45,3.62-.44,5.8,2.81,7.42,1.73.94-.63.35-1.83,1.35-5.21.62-2.08,1.02-3.43,2.16-4.62,1.85-1.93,5.2-2.94,7.58-1.87,1.87.84,2.05,2.47,3.22,2.37.75-.06,1.26-.77,3.56-4.83,1.74-3.09,2.07-3.78,2.96-4.03,1.28-.35,2.98.43,3.81,1.57.72.98.58,1.92,1.02,1.99.56.09.96-1.42,2.37-3.22,1.1-1.4,1.97-2.5,3.18-2.63,2.24-.24,4.45,2.99,4.83,3.56,1.03,1.51,1.19,2.58,1.82,2.58.72,0,.9-1.37,2.37-3.22.89-1.12,1.8-2.27,3.18-2.63,2.22-.58,5.16,1,5.42,2.75.26,1.69-2.05,3.06-1.57,3.81.33.53,1.47-.09,3.6.17,1.16.14,2.79.34,3.81,1.57.91,1.09,1.22,2.84.64,4.19-.95,2.19-3.79,2.25-3.77,3.43.01.57.68.84,3.22,2.37,3.51,2.11,3.83,2.55,4.03,2.96.79,1.68.12,4.23-1.35,5.21-.9.6-1.44.16-4.19.64-2.02.35-3.14.54-3.39,1.23-.34.95,1.41,1.6,2.04,3.98.11.41.48,1.91-.17,3.6-.14.36-.61,1.55-1.78,2.42-1.8,1.33-4.08,1.04-5.59.85-2.73-.35-3.77-1.34-4.41-.76-.8.73.71,2.43.04,5-.11.44-.74,2.66-2.37,3.22-1.89.66-3.81-1.37-4.41-.76-.55.55,1.12,2.13.64,4.19-.02.09-.43,1.74-1.78,2.42-2.23,1.12-5-1.41-5.81-.55-.59.63.89,1.97.64,4.19-.2,1.75-1.44,3.78-2.96,4.03-2.05.34-3.85-2.66-4.62-2.16-.55.36.48,1.84-.17,3.6-.48,1.29-1.79,2.54-3.18,2.63-1.91.12-3.17-2-3.81-1.57-.53.35.39,1.72-.17,3.6-.11.36-.55,1.86-1.78,2.42-1.44.65-3.59-.17-3.6-.17-1.93-1.23-2.69-1.24-3.01-.97-.57.48.39,1.78-.17,3.6-.45,1.48-1.58,2.28-1.78,2.42-1.47,1.01-3.13.78-4.19.64-2.25-.31-3.83-1.47-4.62-2.16"/><path class="cls-3" d="m1386.66,357.97c-.26-.19-.49-.37-.69-.55l1.31-1.51c.84.74,2.24,1.67,4.1,1.92.99.14,2.34.32,3.49-.47.17-.12,1.05-.77,1.39-1.88.23-.75.12-1.4.03-1.98-.11-.67-.25-1.5.45-2.09,1.03-.87,2.63-.08,4.09.83.9.3,2.08.47,2.75.16.52-.24.96-.87,1.23-1.79.24-.82.13-1.53.04-2.11-.1-.64-.24-1.53.53-2.04.87-.58,1.71.06,2.34.52.58.43,1.25.93,1.96.88.89-.06,1.92-.94,2.3-1.98.27-.72.15-1.41.04-2.01-.12-.66-.28-1.56.52-2.08.95-.62,1.87.14,2.68.81.71.59,1.6,1.32,2.33,1.2.93-.15,1.97-1.68,2.13-3.15.11-.95-.18-1.7-.44-2.37-.28-.73-.63-1.64.07-2.39.81-.86,1.99-.42,3.04-.03,1.02.38,2.17.81,3.04.37.94-.47,1.25-1.74,1.26-1.75.2-.86-.12-1.65-.41-2.34-.3-.72-.67-1.62.03-2.33.75-.76,1.74-.31,2.53.05.73.33,1.56.71,2.26.47.88-.3,1.48-1.55,1.73-2.53.29-1.13.07-2.06-.12-2.88-.21-.88-.44-1.88.37-2.61.78-.71,1.7-.41,2.6-.11.65.21,1.46.48,2.61.62,1.43.18,3.4.43,4.87-.66.44-.32,1.04-.93,1.44-1.97.36-.93.4-1.96.13-2.99-.27-1.03-.79-1.66-1.24-2.22-.5-.61-1.12-1.37-.76-2.36.45-1.24,1.84-1.48,4.15-1.87,1.3-.22,2.13-.26,2.73-.28.71-.03.84-.04,1.08-.21,1.06-.7,1.57-2.73,1-3.95-.11-.22-.62-.72-3.64-2.53-.45-.27-.84-.5-1.18-.7-1.83-1.08-2.51-1.48-2.53-2.51-.02-1.16,1.01-1.7,1.84-2.13.8-.42,1.63-.85,2.01-1.72.42-.97.21-2.32-.49-3.16-.77-.93-2.1-1.08-3.17-1.21-.91-.11-1.61-.04-2.17.01-.78.07-1.65.16-2.16-.64-.59-.93.11-1.85.61-2.52.42-.55.89-1.18.81-1.68-.06-.4-.46-.89-1.05-1.28-.97-.64-2.2-.9-3.13-.65-1.05.28-1.83,1.25-2.64,2.28-.6.75-.96,1.42-1.26,1.96-.45.81-.91,1.66-1.91,1.64-.99-.01-1.41-.82-1.82-1.61-.21-.41-.46-.88-.82-1.41-1.39-2.04-2.89-3.23-3.9-3.13-.79.08-1.54,1.04-2.5,2.25-.58.73-.97,1.42-1.29,1.97-.53.92-1.03,1.78-2.03,1.62-.83-.14-1.06-.9-1.2-1.35-.1-.34-.2-.68-.46-1.03-.62-.85-1.93-1.42-2.75-1.19-.39.1-.67.57-1.97,2.87l-.38.68c-2.34,4.14-3.01,5.23-4.35,5.34-1.11.09-1.72-.63-2.22-1.22-.38-.45-.78-.92-1.49-1.24-1.88-.84-4.77-.1-6.45,1.65-.97,1.01-1.33,2.22-1.92,4.21-.43,1.46-.55,2.5-.64,3.26-.12,1.02-.22,1.91-1.12,2.5-1.26.84-2.55.17-3.8-.49-1.15-.6-2.46-1.28-4.05-1.09-2.05.25-4.18,1.89-4.95,3.83-.46,1.15-.31,2.11-.17,3.03.16,1.02.34,2.17-.6,3.11-1.12,1.13-2.66.89-4.15.67-1.23-.19-2.63-.4-4.05.05-1.96.62-3.62,2.4-4.94,5.31l-1.82-.82c1.56-3.45,3.63-5.6,6.16-6.39,1.86-.58,3.57-.33,4.95-.12,1.26.19,2.05.29,2.44-.1.2-.2.18-.49.04-1.4-.16-1.02-.37-2.42.29-4.07,1.04-2.61,3.8-4.74,6.57-5.07,2.2-.26,3.94.64,5.21,1.3.77.4,1.49.78,1.77.59.11-.07.15-.3.24-1.07.1-.83.23-1.97.71-3.6.63-2.13,1.09-3.67,2.4-5.03,1.98-2.06,5.78-3.4,8.71-2.09,1.12.5,1.74,1.24,2.2,1.77.17.19.42.49.51.52.46-.19,1.86-2.68,2.79-4.33l.38-.68c1.51-2.68,1.96-3.49,3.19-3.82,1.8-.49,3.9.6,4.88,1.94.2.27.34.53.45.77.32-.55.75-1.27,1.35-2.02,1.2-1.52,2.23-2.83,3.86-3,2.46-.26,4.67,2.39,5.76,3.99.43.63.72,1.18.94,1.62.02.05.05.1.08.15.04-.07.08-.15.12-.22.31-.57.74-1.35,1.44-2.24.94-1.19,2.01-2.53,3.71-2.97,1.47-.39,3.29-.03,4.73.92,1.1.72,1.78,1.66,1.93,2.65.2,1.3-.56,2.34-1.14,3.12.59-.05,1.35-.09,2.31.02,1.27.15,3.19.39,4.46,1.92,1.18,1.42,1.51,3.57.79,5.23-.66,1.52-1.96,2.2-2.92,2.7-.18.1-.41.21-.58.32.3.2.8.5,1.36.83.34.2.74.43,1.19.71,3.56,2.14,4.08,2.68,4.42,3.4,1,2.13.19,5.22-1.71,6.47-.73.49-1.34.51-2.11.54-.55.02-1.3.05-2.47.25-1,.17-2.12.36-2.53.56.09.13.23.3.34.43.5.61,1.25,1.53,1.63,2.98.37,1.43.3,2.89-.2,4.21-.57,1.49-1.47,2.38-2.12,2.86-2.12,1.57-4.75,1.24-6.31,1.04-1.33-.17-2.28-.48-2.98-.7-.17-.05-.36-.12-.51-.16.03.17.08.37.12.53.21.89.52,2.22.11,3.83-.19.74-.97,3.21-3.01,3.92-1.31.45-2.56-.01-3.46-.41.31.8.62,1.88.33,3.13-.02.08-.52,2.18-2.3,3.08-1.65.83-3.38.19-4.64-.28-.17-.06-.37-.14-.56-.2v.03c.3.75.74,1.88.57,3.31-.24,2.14-1.73,4.56-3.8,4.9-1.53.25-2.81-.71-3.76-1.5.07.65.07,1.44-.25,2.3-.57,1.54-2.14,3.16-4.05,3.28-1.21.08-2.18-.49-2.9-.99.07.63.07,1.42-.19,2.31-.56,1.9-1.57,2.7-2.33,3.04-1.55.7-3.56.13-4.26-.11l-.12-.02-.18-.11c-.78-.5-1.29-.74-1.6-.85,0,.01,0,.03,0,.04.11.67.28,1.69-.09,2.89-.51,1.66-1.68,2.61-2.17,2.95-1.79,1.23-3.74.97-4.9.8-1.89-.26-3.39-1.06-4.45-1.84Z"/><path class="cls-2" d="m1388.21,362.91c2.08-1.54,4.85-3,7.69-2.41,3.45.71,5.01,3.97,7.04,3.38,1.62-.47,1.02-2.94,3.3-4.81,1.86-1.52,4.9-2.03,7.2-1.09,3.37,1.38,3.7,5.27,5.64,5.12,1.13-.09,1.19-1.43,3.72-3.9,1.55-1.52,2.56-2.5,4.13-2.99,2.55-.78,5.97-.04,7.53,2.06,1.23,1.64.59,3.15,1.66,3.64.69.31,1.48-.06,5.46-2.49,3.03-1.85,3.65-2.3,4.55-2.08,1.28.32,2.39,1.82,2.57,3.22.15,1.21-.43,1.96-.08,2.23.45.36,1.53-.78,3.64-1.66,1.64-.69,2.93-1.23,4.05-.75,2.07.88,2.43,4.78,2.49,5.46.17,1.82-.21,2.83.34,3.14.62.36,1.46-.76,3.64-1.66,1.33-.55,2.67-1.11,4.05-.75,2.22.57,4.02,3.38,3.4,5.04-.6,1.6-3.27,1.68-3.22,2.57.03.62,1.33.64,3.07,1.9.95.69,2.27,1.65,2.57,3.22.26,1.4-.32,3.08-1.48,3.98-1.9,1.46-4.41.12-4.96,1.17-.27.5.18,1.06,1.66,3.64,2.04,3.55,2.11,4.09,2.08,4.55-.13,1.85-1.95,3.76-3.72,3.9-1.08.08-1.33-.55-3.98-1.48-1.94-.68-3-1.06-3.56-.57-.77.67.46,2.08-.16,4.47-.11.41-.51,1.91-1.9,3.07-.3.25-1.29,1.06-2.73,1.25-2.22.29-4.07-1.07-5.3-1.98-2.22-1.63-2.65-3-3.48-2.81-1.05.25-.57,2.47-2.39,4.39-.32.33-1.94,1.96-3.64,1.66-1.97-.35-2.66-3.05-3.48-2.81-.74.22-.06,2.4-1.48,3.98-.06.07-1.22,1.31-2.73,1.25-2.49-.1-3.68-3.66-4.81-3.3-.82.26-.18,2.15-1.48,3.98-1.03,1.43-3.09,2.6-4.55,2.08-1.96-.7-2.07-4.2-2.99-4.13-.66.05-.48,1.84-1.9,3.07-1.05.9-2.8,1.35-4.05.75-1.73-.82-1.8-3.28-2.57-3.22-.63.05-.49,1.69-1.9,3.07-.27.26-1.39,1.36-2.73,1.25-1.57-.13-3.05-1.89-3.07-1.9-1.09-2.01-1.75-2.39-2.16-2.31-.73.14-.52,1.74-1.9,3.07-1.11,1.07-2.49,1.22-2.73,1.25-1.78.17-3.12-.84-3.98-1.48-1.81-1.37-2.63-3.15-2.99-4.13"/><path class="cls-3" d="m1390.3,410.11c-.1-.08-.2-.15-.29-.22-1.89-1.43-2.85-3.28-3.33-4.59l1.88-.68c.38,1.05,1.15,2.54,2.65,3.67.8.6,1.89,1.42,3.28,1.29.29-.03,1.31-.18,2.13-.97.57-.55.79-1.17.99-1.71.23-.64.52-1.44,1.41-1.61,1.32-.26,2.34,1.21,3.17,2.71.64.71,1.59,1.42,2.33,1.48.33.03,1.02-.06,1.94-.96.61-.6.86-1.28,1.06-1.82.23-.61.53-1.45,1.46-1.52,1.04-.08,1.47.89,1.79,1.59.3.66.64,1.42,1.29,1.72.8.38,2.14.11,2.97-.61.59-.5.81-1.16,1.01-1.74.22-.63.52-1.5,1.47-1.57,1.13-.08,1.56,1.03,1.95,2.01.34.86.76,1.93,1.45,2.18.89.32,2.54-.52,3.4-1.72.56-.78.67-1.58.77-2.29.11-.78.25-1.75,1.22-2.06,1.12-.36,1.95.6,2.67,1.45.71.83,1.51,1.76,2.48,1.8,1.05.04,1.94-.91,1.95-.92.59-.65.69-1.5.78-2.24.09-.78.2-1.74,1.16-2.02,1.03-.3,1.67.58,2.19,1.28.48.65,1.02,1.38,1.74,1.51.91.16,2.05-.63,2.74-1.37.81-.85,1.07-1.76,1.3-2.57.25-.87.53-1.86,1.59-2.1,1.02-.24,1.68.47,2.32,1.16.47.5,1.05,1.13,1.98,1.81,1.16.86,2.76,2.03,4.58,1.79.54-.07,1.36-.31,2.22-1.02.76-.64,1.31-1.52,1.57-2.55.27-1.03.12-1.83,0-2.54-.14-.77-.32-1.74.48-2.43.99-.87,2.33-.4,4.55.38,1.24.44,1.98.81,2.52,1.08.63.32.75.37,1.05.35,1.27-.1,2.71-1.62,2.8-2.97.02-.25-.19-.92-1.95-3.98-.26-.45-.49-.84-.69-1.18-1.07-1.83-1.47-2.52-.99-3.42.54-1.03,1.71-.99,2.65-.97.9.03,1.84.05,2.59-.52.84-.64,1.31-1.93,1.11-3-.22-1.18-1.31-1.97-2.18-2.6-.74-.54-1.38-.82-1.9-1.05-.71-.31-1.52-.67-1.57-1.61-.06-1.1.99-1.56,1.76-1.9.63-.28,1.35-.6,1.53-1.08.14-.38.03-1.01-.3-1.63-.54-1.03-1.49-1.86-2.42-2.09-1.06-.27-2.2.2-3.42.71-.89.37-1.53.77-2.05,1.1-.79.49-1.6,1-2.47.51-.86-.49-.83-1.4-.81-2.29.01-.46.03-.99-.03-1.63-.23-2.46-.95-4.22-1.89-4.63-.73-.31-1.85.16-3.28.75-.86.36-1.54.77-2.09,1.1-.91.54-1.77,1.08-2.56.42-.66-.53-.49-1.3-.39-1.76.08-.34.15-.69.1-1.13-.13-1.04-1-2.18-1.82-2.38-.39-.1-.86.17-3.12,1.55l-.66.41c-4.06,2.48-5.17,3.11-6.4,2.55-1.01-.46-1.2-1.39-1.35-2.14-.12-.58-.24-1.19-.7-1.81-1.23-1.65-4.12-2.41-6.44-1.7-1.34.41-2.24,1.29-3.73,2.74-1.09,1.07-1.7,1.92-2.15,2.54-.6.84-1.12,1.56-2.19,1.64-1.51.12-2.31-1.1-3.09-2.27-.72-1.08-1.53-2.31-3.01-2.92-1.91-.78-4.57-.38-6.19.94-.96.78-1.3,1.69-1.62,2.57-.36.97-.76,2.06-2.04,2.43-1.53.44-2.76-.51-3.95-1.43-.99-.77-2.11-1.63-3.57-1.93-2.01-.42-4.33.34-6.89,2.24l-1.19-1.61c3.04-2.25,5.9-3.12,8.49-2.59,1.91.4,3.28,1.46,4.38,2.31,1.01.78,1.65,1.25,2.18,1.1.27-.08.4-.34.72-1.2.36-.97.85-2.29,2.23-3.42,2.17-1.77,5.63-2.29,8.21-1.24,2.05.84,3.13,2.48,3.92,3.67.48.72.93,1.41,1.26,1.38.13-.01.28-.19.73-.82.49-.68,1.15-1.61,2.37-2.8,1.59-1.55,2.74-2.67,4.54-3.23,2.73-.84,6.71-.16,8.63,2.41.74.99.92,1.93,1.06,2.62.05.25.13.63.19.7.49.06,2.93-1.43,4.54-2.42l.66-.41c2.62-1.61,3.41-2.09,4.65-1.79,1.81.45,3.11,2.42,3.32,4.07.04.33.04.63.02.89.55-.33,1.27-.74,2.16-1.11,1.78-.75,3.32-1.39,4.83-.75,2.28.97,2.92,4.35,3.1,6.29.07.76.05,1.38.04,1.87,0,.05,0,.11,0,.16.07-.05.15-.09.21-.13.55-.35,1.31-.82,2.35-1.25,1.4-.58,2.98-1.24,4.69-.8,1.48.38,2.89,1.57,3.69,3.11.61,1.16.75,2.32.4,3.26-.46,1.23-1.63,1.78-2.51,2.17.54.24,1.23.58,2,1.14,1.04.75,2.59,1.89,2.97,3.85.34,1.81-.42,3.85-1.86,4.95-1.31,1.01-2.79.97-3.86.94-.21,0-.46-.01-.66,0,.16.32.46.83.78,1.39.2.34.43.74.69,1.19,2.07,3.6,2.26,4.32,2.21,5.12-.16,2.35-2.37,4.65-4.64,4.82-.88.07-1.42-.21-2.11-.56-.49-.25-1.16-.59-2.28-.98-.96-.34-2.03-.71-2.48-.74.02.15.06.37.09.54.14.77.35,1.94-.02,3.4-.37,1.43-1.14,2.67-2.22,3.58-1.22,1.03-2.44,1.37-3.24,1.47-2.62.34-4.75-1.23-6.02-2.16-1.08-.8-1.76-1.53-2.26-2.06-.12-.13-.25-.27-.37-.39-.05.16-.11.36-.16.52-.25.87-.63,2.2-1.77,3.4-.53.55-2.41,2.33-4.54,1.96-1.36-.24-2.23-1.25-2.82-2.04-.12.85-.37,1.95-1.23,2.89-.16.17-1.56,1.65-3.51,1.57-1.84-.08-3.04-1.48-3.92-2.5-.12-.14-.26-.3-.39-.45,0,.01,0,.02,0,.03-.11.79-.28,1.99-1.12,3.17-1.25,1.75-3.73,3.15-5.7,2.44-1.46-.53-2.11-1.99-2.56-3.14-.25.6-.64,1.29-1.33,1.89-1.24,1.07-3.41,1.72-5.14.9-1.09-.52-1.67-1.49-2.05-2.27-.25.58-.63,1.28-1.29,1.93-1.42,1.39-2.69,1.6-3.51,1.53-1.68-.14-3.16-1.6-3.66-2.15l-.1-.07-.11-.2c-.44-.82-.77-1.27-.98-1.52,0,.01,0,.03-.01.04-.23.64-.58,1.61-1.48,2.48-1.25,1.2-2.74,1.46-3.33,1.52-1.96.19-3.43-.76-4.38-1.46Z"/><path class="cls-2" d="m1305.64,276.67c1.94-1.72,3.93-4.13,3.94-7.04,0-3.53-2.86-5.72-1.87-7.58.79-1.49,3.09-.39,5.38-2.25,1.87-1.51,2.99-4.38,2.54-6.82-.66-3.58-4.4-4.71-3.86-6.57.32-1.08,1.64-.87,4.58-2.84,1.8-1.21,2.98-1.99,3.77-3.43,1.29-2.34,1.26-5.83-.47-7.8-1.36-1.54-2.96-1.22-3.22-2.37-.17-.74.36-1.44,3.56-4.83,2.43-2.58,3-3.1,2.96-4.03-.05-1.32-1.3-2.71-2.63-3.18-1.15-.4-2,.02-2.2-.38-.26-.51,1.07-1.33,2.37-3.22,1.01-1.46,1.8-2.62,1.57-3.81-.44-2.21-4.18-3.36-4.83-3.56-1.75-.54-2.81-.37-3.01-.97-.22-.68,1.04-1.27,2.37-3.22.81-1.19,1.63-2.39,1.57-3.81-.11-2.29-2.49-4.63-4.24-4.36-1.69.26-2.31,2.86-3.18,2.63-.6-.16-.35-1.43-1.23-3.39-.48-1.07-1.15-2.56-2.63-3.18-1.31-.55-3.08-.32-4.19.64-1.81,1.56-1.02,4.29-2.16,4.62-.55.16-1-.4-3.22-2.37-3.06-2.72-3.57-2.9-4.03-2.96-1.84-.26-4.08,1.14-4.58,2.84-.3,1.04.27,1.42.64,4.19.27,2.04.42,3.16-.17,3.6-.81.61-1.95-.87-4.41-.76-.43.02-1.97.11-3.39,1.23-.31.24-1.3,1.04-1.78,2.42-.74,2.11.21,4.2.85,5.59,1.14,2.5,2.4,3.21,2.04,3.98-.46.98-2.53.05-4.79,1.44-.39.24-2.32,1.5-2.37,3.22-.06,2,2.44,3.23,2.04,3.98-.36.68-2.37-.44-4.19.64-.08.05-1.53.93-1.78,2.42-.41,2.46,2.83,4.35,2.25,5.38-.43.75-2.14-.26-4.19.64-1.61.71-3.18,2.49-2.96,4.03.29,2.06,3.69,2.89,3.43,3.77-.18.64-1.9.09-3.39,1.23-1.09.84-1.89,2.46-1.57,3.81.45,1.86,2.85,2.43,2.63,3.18-.18.61-1.76.14-3.39,1.23-.31.21-1.61,1.08-1.78,2.42-.19,1.57,1.22,3.38,1.23,3.39,1.75,1.48,1.98,2.2,1.82,2.58-.29.68-1.81.15-3.39,1.23-1.28.87-1.71,2.19-1.78,2.42-.53,1.71.18,3.22.64,4.19.96,2.06,2.54,3.22,3.43,3.77"/><path class="cls-3" d="m1263.11,268.99c-1.06-.78-2.27-1.97-3.08-3.7-.5-1.06-1.33-2.84-.69-4.92.14-.44.69-1.94,2.17-2.94,1.04-.71,2.06-.85,2.73-.94.01,0,.03,0,.04,0-.2-.26-.58-.68-1.29-1.28l-.22-.25c-.44-.61-1.57-2.35-1.36-4.02.1-.82.57-2.02,2.21-3.12.77-.52,1.53-.74,2.15-.87-.69-.53-1.52-1.29-1.81-2.47-.45-1.86.63-3.84,1.93-4.84.73-.56,1.49-.79,2.13-.92-1.03-.68-2.34-1.61-2.55-3.15-.29-2.07,1.58-4.21,3.55-5.08,1.32-.58,2.53-.5,3.33-.45.01,0,.02,0,.03,0-.12-.16-.25-.33-.36-.47-.82-1.07-1.95-2.53-1.65-4.35.32-1.92,2.06-3,2.26-3.11,1.1-.65,2.23-.67,3.09-.61-.65-.74-1.46-1.8-1.42-3.18.07-2.16,2.19-3.64,2.85-4.04,1.41-.87,2.78-.97,3.69-1.04.17-.01.37-.03.54-.05-.09-.14-.2-.3-.31-.44-.42-.6-1-1.41-1.56-2.63-.66-1.44-1.76-3.85-.88-6.34.27-.76.85-1.88,2.1-2.87,1.11-.87,2.48-1.37,3.96-1.44,1.5-.07,2.6.38,3.33.68.17.07.39.16.54.2.05-.37-.1-1.54-.24-2.59-.16-1.18-.35-1.9-.49-2.43-.2-.75-.36-1.33-.11-2.18.64-2.18,3.34-3.87,5.67-3.55.79.11,1.45.45,4.55,3.21.4.35.74.66,1.03.93.48.43.91.83,1.19,1.05.05-.19.09-.44.13-.65.19-1.06.45-2.51,1.71-3.59,1.37-1.18,3.53-1.51,5.23-.8,1.84.77,2.63,2.53,3.16,3.69.39.88.58,1.62.71,2.2.56-.79,1.34-1.82,2.64-2.01.99-.15,2.09.23,3.11,1.06,1.34,1.1,2.21,2.73,2.28,4.25.08,1.76-.89,3.17-1.74,4.42-.64.93-1.26,1.57-1.71,2.04-.06.06-.12.12-.18.18.05.01.11.02.16.03.49.09,1.09.2,1.83.42,1.85.57,5.04,1.89,5.52,4.32.32,1.61-.63,2.98-1.72,4.58-.55.79-1.1,1.41-1.53,1.89.27.03.56.1.87.2,1.57.55,3.23,2.22,3.3,4.08.05,1.27-.59,1.95-2.7,4.18l-.54.57c-1.3,1.38-3.26,3.46-3.31,3.92.07.12.42.27.65.37.64.28,1.53.65,2.34,1.57,2.13,2.41,1.98,6.44.6,8.94-.91,1.65-2.24,2.54-4.09,3.78-1.42.95-2.46,1.41-3.23,1.75-.7.31-.91.42-.95.54-.09.32.48.9,1.09,1.52,1.01,1.02,2.39,2.41,2.79,4.59.5,2.75-.71,6.02-2.89,7.78-1.39,1.12-2.78,1.33-3.8,1.48-.91.14-1.19.21-1.32.46-.26.48.07,1.21.63,2.36.61,1.25,1.36,2.81,1.36,4.76,0,2.65-1.45,5.27-4.27,7.78l-1.33-1.5c2.38-2.12,3.6-4.23,3.6-6.29,0-1.49-.61-2.76-1.16-3.88-.66-1.36-1.34-2.76-.59-4.16.62-1.17,1.78-1.35,2.79-1.5.92-.14,1.88-.28,2.84-1.06,1.62-1.31,2.56-3.83,2.18-5.86-.29-1.57-1.33-2.62-2.24-3.54-.99-1-2.02-2.03-1.59-3.49.3-1.03,1.12-1.39,2.06-1.81.7-.31,1.65-.73,2.92-1.58,1.73-1.16,2.77-1.86,3.45-3.08,1.17-2.13,1.02-5.11-.34-6.65-.52-.58-1.08-.82-1.63-1.06-.7-.3-1.57-.67-1.82-1.76-.3-1.31.54-2.28,3.81-5.74l.54-.57c1.82-1.92,2.17-2.33,2.16-2.73-.03-.84-.96-1.93-1.96-2.27-.41-.14-.77-.14-1.12-.13-.47,0-1.27.01-1.64-.74-.46-.91.22-1.64.94-2.42.43-.47.97-1.05,1.5-1.82.87-1.27,1.56-2.27,1.41-3.05-.2-1-1.79-2.07-4.14-2.8-.62-.19-1.13-.28-1.59-.36-.87-.16-1.77-.32-2.08-1.26-.31-.95.36-1.64,1-2.31.43-.44.95-.99,1.49-1.78.74-1.09,1.44-2.11,1.39-3.2-.04-.96-.65-2.06-1.55-2.79-.54-.45-1.13-.69-1.54-.63-.51.08-.96.71-1.37,1.27-.49.68-1.16,1.62-2.22,1.33-.91-.25-1.09-1.11-1.25-1.87-.12-.55-.26-1.24-.63-2.08-.44-.98-.99-2.2-2.1-2.66-1-.42-2.36-.21-3.16.47-.72.61-.88,1.54-1.04,2.43-.17.92-.37,2.07-1.49,2.4-.99.28-1.57-.25-3.14-1.67-.29-.26-.63-.57-1.02-.92-2.63-2.35-3.25-2.69-3.5-2.72-1.33-.18-3.12.91-3.48,2.13-.08.28-.06.41.12,1.1.16.58.37,1.38.54,2.69.31,2.33.5,3.74-.56,4.53-.84.64-1.75.27-2.48-.03-.67-.27-1.42-.58-2.49-.53-1.06.05-2.03.4-2.82,1.02-.88.69-1.27,1.45-1.45,1.96-.61,1.73.21,3.53.81,4.85.48,1.05.97,1.75,1.37,2.31.54.77,1.11,1.56.66,2.51-.46.99-1.48,1.06-2.39,1.13-.84.06-1.79.13-2.78.74-.86.53-1.87,1.48-1.9,2.4-.02.74.58,1.42,1.12,2.02.58.65,1.3,1.46.8,2.4-.47.88-1.44.79-2.22.72-.75-.07-1.59-.14-2.36.3,0,0-1.13.68-1.3,1.72-.16.96.59,1.93,1.26,2.8.68.89,1.46,1.89.87,2.91-.51.89-1.48.83-2.27.78-.71-.05-1.52-.1-2.39.28-1.35.59-2.51,2.04-2.38,2.97.1.73,1.07,1.36,1.84,1.87.88.57,1.88,1.23,1.57,2.32-.26.92-1.17,1.03-1.84,1.12-.61.08-1.29.16-1.91.63-.87.67-1.41,1.92-1.2,2.79.17.69.84,1.18,1.42,1.61.62.44,1.49,1.08,1.19,2.08-.26.89-1.15,1.02-1.79,1.12-.58.09-1.29.19-2,.66-1.07.72-1.3,1.38-1.34,1.71-.09.73.42,1.81.97,2.58,1.31,1.12,2.53,2.42,2.01,3.66-.36.84-1.19.96-1.87,1.05-.58.08-1.23.17-1.88.62-.97.66-1.33,1.69-1.39,1.89-.42,1.34.16,2.57.59,3.47.8,1.7,2.1,2.75,3.05,3.34l-1.05,1.7c-.23-.14-.48-.31-.73-.49Z"/><path class="cls-2" d="m1259.8,270.4c.78-2.47,1.26-5.56-.22-8.06-1.8-3.03-5.38-3.44-5.49-5.56-.09-1.69,2.45-1.92,3.47-4.69.83-2.26.32-5.29-1.32-7.16-2.4-2.74-6.19-1.78-6.68-3.66-.28-1.09.96-1.59,2.47-4.78.93-1.96,1.53-3.24,1.48-4.88-.09-2.67-1.9-5.66-4.4-6.45-1.95-.62-3.17.47-3.98-.39-.52-.55-.43-1.42.58-5.97.76-3.46.99-4.2.48-4.98-.72-1.11-2.5-1.67-3.88-1.38-1.19.25-1.71,1.04-2.09.8-.48-.31.24-1.7.39-3.98.11-1.77.21-3.17-.61-4.08-1.51-1.67-5.31-.74-5.97-.58-1.78.43-2.61,1.12-3.08.71-.54-.47.24-1.62.39-3.98.09-1.43.18-2.89-.61-4.08-1.26-1.91-4.51-2.7-5.88-1.57-1.32,1.09-.52,3.64-1.38,3.88-.6.17-1.04-1.05-2.79-2.28-.96-.67-2.3-1.61-3.88-1.38-1.41.2-2.81,1.3-3.28,2.7-.76,2.27,1.32,4.21.51,5.07-.39.42-1.06.17-3.98-.39-4.02-.77-4.55-.66-4.98-.48-1.71.72-2.92,3.07-2.47,4.78.27,1.05.96,1.08,2.7,3.28,1.27,1.61,1.98,2.5,1.7,3.18-.38.94-2.12.25-4.17,1.6-.36.23-1.63,1.11-2.28,2.79-.14.36-.58,1.56-.29,2.99.45,2.19,2.34,3.5,3.6,4.37,2.26,1.56,3.7,1.52,3.79,2.38.11,1.07-2.15,1.34-3.37,3.69-.21.41-1.22,2.47-.39,3.98.97,1.75,3.75,1.52,3.79,2.38.04.77-2.26.84-3.28,2.7-.04.08-.84,1.58-.29,2.99.91,2.32,4.66,2.29,4.69,3.47.02.86-1.98.87-3.28,2.7-1.02,1.44-1.45,3.77-.48,4.98,1.3,1.62,4.64.59,4.88,1.48.17.64-1.59,1.05-2.28,2.79-.51,1.28-.36,3.09.61,4.08,1.34,1.36,3.69.63,3.88,1.38.16.61-1.44,1.02-2.28,2.79-.16.34-.83,1.75-.29,2.99.64,1.44,2.78,2.27,2.79,2.28,2.26.38,2.83.87,2.89,1.28.1.74-1.48,1.06-2.28,2.79-.65,1.4-.34,2.75-.29,2.99.42,1.74,1.81,2.67,2.7,3.28,1.88,1.27,3.84,1.46,4.88,1.48"/><path class="cls-3" d="m1214.15,283.55c-.93-.68-2.05-1.73-2.46-3.42-.11-.44-.4-2.02.35-3.64.53-1.14,1.33-1.78,1.86-2.21.01,0,.02-.02.03-.03-.31-.12-.85-.28-1.76-.43l-.22-.04-.1-.07c-.69-.3-2.55-1.22-3.23-2.76-.33-.75-.55-2.03.3-3.82.4-.84.93-1.42,1.4-1.85-.87-.1-1.97-.33-2.82-1.2-1.34-1.37-1.43-3.62-.83-5.15.34-.85.87-1.44,1.36-1.88-1.23-.05-2.83-.18-3.81-1.4-1.31-1.63-.8-4.43.45-6.18.84-1.18,1.92-1.73,2.63-2.09.01,0,.02-.01.03-.02-.18-.08-.38-.16-.55-.22-1.25-.49-2.97-1.17-3.64-2.89-.71-1.82.23-3.63.34-3.83.61-1.12,1.57-1.71,2.34-2.1-.94-.31-2.18-.79-2.85-2-1.05-1.89.02-4.25.37-4.93.77-1.47,1.89-2.26,2.64-2.78.14-.1.31-.21.44-.32-.15-.07-.33-.15-.49-.22-.67-.3-1.58-.7-2.69-1.46-1.3-.9-3.48-2.4-4.01-4.99-.16-.79-.23-2.05.33-3.54.51-1.32,1.43-2.45,2.66-3.27,1.25-.83,2.43-1.01,3.21-1.13.18-.03.42-.06.57-.1-.15-.35-.88-1.28-1.53-2.1-.73-.93-1.27-1.45-1.67-1.83-.55-.54-.99-.96-1.21-1.81-.57-2.2.88-5.04,3.05-5.96.73-.31,1.48-.36,5.56.42.52.1.97.19,1.36.27.63.13,1.21.24,1.56.29-.06-.19-.15-.43-.22-.62-.38-1.01-.9-2.39-.37-3.96.58-1.72,2.25-3.1,4.08-3.37,1.97-.29,3.56.82,4.6,1.55.79.55,1.33,1.09,1.73,1.53.08-.96.22-2.25,1.23-3.08.77-.63,1.91-.88,3.21-.68,1.71.26,3.3,1.21,4.14,2.48.97,1.47.87,3.18.77,4.69-.07,1.13-.27,2-.42,2.63-.02.08-.04.16-.06.25.05-.02.1-.04.15-.06.46-.17,1.04-.39,1.78-.57,1.88-.46,5.29-.95,6.95.88,1.1,1.22.99,2.88.87,4.81-.06.96-.22,1.78-.35,2.41.25-.11.53-.2.85-.27,1.63-.34,3.91.25,4.93,1.82.69,1.07.49,1.97-.18,4.98l-.17.76c-.41,1.85-1.03,4.64-.84,5.06.12.06.5.01.75-.02.69-.1,1.65-.22,2.82.15,3.06.98,5,4.52,5.09,7.37.06,1.89-.62,3.34-1.57,5.34-.73,1.54-1.39,2.47-1.87,3.15-.44.63-.57.83-.54.95.08.32.88.53,1.72.74,1.39.36,3.29.84,4.75,2.51,1.84,2.1,2.47,5.53,1.5,8.16-.62,1.67-1.71,2.57-2.51,3.22-.71.58-.91.79-.9,1.07.03.55.68,1,1.74,1.7,1.16.76,2.61,1.72,3.61,3.39,1.35,2.28,1.46,5.26.32,8.87l-1.91-.6c.96-3.04.92-5.48-.13-7.25-.76-1.28-1.94-2.06-2.98-2.74-1.26-.83-2.56-1.68-2.64-3.27-.07-1.33.83-2.07,1.63-2.72.72-.59,1.47-1.2,1.9-2.37.72-1.95.23-4.6-1.13-6.16-1.05-1.2-2.48-1.57-3.74-1.89-1.36-.35-2.77-.71-3.15-2.18-.27-1.04.24-1.77.84-2.61.44-.62,1.04-1.47,1.7-2.85.89-1.88,1.43-3.02,1.38-4.42-.08-2.43-1.74-4.91-3.7-5.54-.74-.24-1.35-.15-1.94-.07-.75.1-1.69.23-2.46-.58-.93-.98-.7-2.23.33-6.88l.17-.76c.57-2.59.67-3.12.45-3.46-.46-.71-1.81-1.16-2.84-.94-.43.09-.74.28-1.03.46-.4.25-1.08.66-1.79.21-.87-.55-.65-1.52-.43-2.56.13-.62.3-1.4.36-2.33.1-1.54.18-2.75-.35-3.34-.69-.75-2.6-.86-4.99-.28-.63.15-1.12.34-1.55.5-.83.31-1.68.62-2.43-.02-.75-.66-.53-1.6-.32-2.5.14-.6.31-1.34.37-2.29.08-1.32.16-2.56-.45-3.47-.53-.8-1.61-1.43-2.77-1.6-.7-.1-1.33,0-1.64.25-.4.33-.46,1.11-.52,1.79-.07.84-.17,1.98-1.22,2.28-.91.26-1.5-.39-2.03-.96-.38-.42-.86-.94-1.61-1.46-.88-.62-1.98-1.38-3.17-1.21-1.07.16-2.14,1.03-2.47,2.03-.3.9.03,1.77.35,2.62.33.88.74,1.97-.05,2.82-.7.75-1.48.59-3.56.18-.38-.08-.83-.17-1.34-.26-3.46-.67-4.17-.64-4.4-.54-1.24.52-2.22,2.38-1.9,3.61.07.29.16.39.67.88.43.42,1.03,1,1.84,2.03,1.46,1.84,2.34,2.95,1.84,4.17-.4.98-1.36,1.13-2.14,1.25-.71.11-1.52.23-2.41.82-.89.59-1.54,1.39-1.9,2.32-.32.84-.4,1.65-.24,2.43.37,1.8,1.99,2.92,3.18,3.74.95.66,1.73,1,2.36,1.28.86.38,1.75.78,1.86,1.82.11,1.09-.73,1.67-1.47,2.19-.69.48-1.47,1.03-2.01,2.06-.46.89-.85,2.22-.4,3.04.36.65,1.23.92,1.99,1.16.83.26,1.87.59,1.92,1.65.05,1-.83,1.42-1.53,1.76-.68.33-1.44.69-1.87,1.47,0,.01-.62,1.16-.23,2.14.35.91,1.5,1.36,2.51,1.76,1.04.41,2.22.87,2.24,2.05.02,1.03-.85,1.47-1.55,1.83-.64.32-1.36.69-1.91,1.47-.86,1.2-1.11,3.04-.52,3.77.46.57,1.61.62,2.54.66,1.05.04,2.24.09,2.53,1.19.24.92-.48,1.49-1,1.9-.48.38-1.03.8-1.31,1.52-.41,1.02-.23,2.37.39,3.01.49.51,1.32.59,2.05.65.77.07,1.83.17,2.09,1.18.23.9-.46,1.46-.97,1.88-.45.37-1.01.83-1.38,1.6-.55,1.17-.41,1.85-.28,2.15.3.68,1.28,1.34,2.16,1.72,1.69.29,3.41.78,3.6,2.11.12.9-.53,1.43-1.06,1.86-.45.36-.97.78-1.3,1.49-.49,1.06-.27,2.13-.22,2.33.33,1.36,1.46,2.12,2.28,2.68,1.56,1.05,3.22,1.29,4.34,1.31l-.03,2c-1.39-.02-3.46-.32-5.43-1.65-.19-.13-.42-.28-.65-.45Z"/><path class="cls-2" d="m1218.39,291.16c-.61-2.5-1.72-5.42-3.9-7.03-2.64-1.96-5.29-.89-6.34-2.71-.84-1.45.79-2.68.2-5.53-.48-2.33-2.24-4.81-4.23-5.8-2.92-1.46-5.07.91-6.28-.56-.7-.85-.08-1.79-.53-5.22-.27-2.11-.45-3.48-1.26-4.9-1.3-2.32-3.93-4.24-6.01-3.94-1.63.23-1.95,1.68-2.91,1.26-.61-.27-.95-1.08-2.38-5.51-1.09-3.37-1.28-4.11-1.98-4.59-1.01-.69-2.49-.47-3.3.34-.7.7-.69,1.61-1.06,1.55-.47-.08-.62-1.59-1.59-3.67-.74-1.61-1.33-2.89-2.31-3.36-1.81-.87-3.98,1.47-4.36,1.88-1.01,1.1-1.26,2.04-1.78,1.86-.59-.2-.59-1.53-1.59-3.67-.61-1.3-1.22-2.62-2.31-3.36-1.75-1.18-4.34-.58-4.76.96-.4,1.49,1.34,3.42.86,3.99-.33.39-1.2-.51-2.97-.89-.97-.21-2.33-.5-3.3.34-.87.74-1.32,2.28-.99,3.7.53,2.31,2.86,3.19,2.71,4.28-.07.52-.65.58-2.91,1.26-3.11.93-3.43,1.24-3.63,1.57-.84,1.32-.57,3.88.53,5.22.67.81,1.16.57,3.37,1.81,1.62.91,2.51,1.41,2.64,2.13.18.98-1.34,1.07-2.11,3.09-.13.35-.61,1.63-.26,3.38.07.38.33,1.61,1.19,2.75,1.33,1.76,3.23,2.15,4.49,2.42,2.28.47,3.24-.14,3.7.58.57.9-.85,2.04-.59,4.61.04.44.31,2.67,1.59,3.67,1.48,1.16,3.27-.16,3.7.58.39.67-1.16,1.64-.99,3.7,0,.09.16,1.73,1.19,2.75,1.7,1.69,4.26.15,4.82,1.19.41.75-.95,1.56-.99,3.7-.03,1.68.76,3.91,1.98,4.59,1.65.91,3.46-1.34,4.03-.65.41.5-.6,1.56-.26,3.38.25,1.34,1.19,2.87,2.31,3.36,1.55.67,2.82-.92,3.3-.34.39.48-.51,1.48-.26,3.38.05.36.24,1.88,1.19,2.75,1.11,1.02,2.96.89,2.97.89,1.72-.57,2.35-.36,2.58-.02.41.61-.52,1.53-.26,3.38.21,1.5,1.04,2.57,1.19,2.75,1.09,1.37,2.48,1.64,3.37,1.81,1.88.37,3.31-.25,4.03-.65"/><path class="cls-2" d="m1190.79,320.09c-.36-.27-.72-.6-1.05-1.02-.35-.44-1.18-1.62-1.4-3.24-.16-1.2.09-2.09.25-2.67.02-.05.03-.11.05-.17-.23.01-.64.08-1.3.3l-.26.09-.15-.03c-.67.01-2.38-.08-3.56-1.16-.55-.51-1.26-1.51-1.5-3.36-.12-.95,0-1.71.13-2.28-.67.25-1.57.46-2.57.03-1.53-.66-2.62-2.56-2.9-4.09-.17-.92-.06-1.67.08-2.26-.86.42-2.1.91-3.35.22-1.62-.89-2.54-3.49-2.5-5.49.03-1.38.52-2.31.84-2.93.02-.04.05-.09.07-.14-.16,0-.34.01-.5.02-1.06.06-2.67.17-3.95-1.11-1.28-1.27-1.46-3.17-1.48-3.39-.1-1.3.33-2.25.69-2.92-.8.11-1.97.16-3.02-.65-1.5-1.17-1.87-3.44-1.96-4.36-.16-1.59.25-2.74.52-3.5.07-.19.15-.43.19-.59-.13,0-.3,0-.44,0-.61,0-1.44.02-2.58-.22-1.32-.28-3.53-.73-5.09-2.79-.46-.62-1.08-1.66-1.37-3.16-.26-1.35-.16-2.71.31-3.93.49-1.29,1.25-1.95,1.75-2.38.09-.08.2-.18.28-.25-.23-.3-1.26-.88-2.11-1.36-.93-.52-1.54-.77-1.98-.95-.63-.25-1.13-.46-1.67-1.1-1.37-1.67-1.66-4.71-.6-6.39.4-.64.92-1.02,4.19-1.99.4-.12.75-.22,1.06-.31.37-.11.73-.21.99-.3-.14-.14-.34-.34-.5-.51-.71-.72-1.68-1.71-2.04-3.24-.4-1.75.14-3.67,1.31-4.68,1.35-1.16,3.11-.78,4.16-.56.52.11.97.26,1.36.42-.34-.81-.68-1.81-.42-2.79.24-.91.98-1.66,2.01-2.04,1.4-.52,3.03-.33,4.27.51,1.33.88,2,2.35,2.66,3.77.47,1.01.73,1.84.92,2.46,0,.02.02.05.02.07.2-.29.46-.62.79-.97,1.97-2.13,3.93-2.87,5.53-2.1,1.3.63,1.99,2.12,2.79,3.84.36.79.62,1.5.81,2.08.07-.08.14-.16.22-.24,1.2-1.19,3.21-1.39,4.57-.45.93.65,1.19,1.43,2.13,4.36l.24.74c.6,1.85,1.4,4.35,1.78,4.84.07-.06.16-.13.23-.19.44-.37,1.1-.92,2.18-1.08,2.73-.39,5.65,2,7.03,4.44.9,1.6,1.1,3.13,1.37,5.26.21,1.65.2,2.73.18,3.52-.01.82,0,1.03.13,1.2.16.19.38.18,1.36-.03,1.16-.25,2.75-.59,4.59.33,2.21,1.1,4.21,3.84,4.76,6.49.35,1.7.02,2.92-.22,3.82-.22.81-.27,1.1-.09,1.42.29.51.85.63,1.97.83,1.16.21,2.61.47,4.08,1.56l.02.02c1.95,1.45,3.39,4,4.27,7.6l-1.94.48c-.77-3.13-1.95-5.3-3.52-6.47h-.02c-1.1-.82-2.19-1.02-3.25-1.21-1.27-.23-2.57-.47-3.35-1.8-.62-1.07-.35-2.06-.11-2.94.22-.82.45-1.66.2-2.89-.43-2.07-2.01-4.27-3.7-5.11-1.21-.61-2.26-.38-3.27-.16-1.06.23-2.37.51-3.33-.66-.62-.75-.6-1.52-.58-2.5.01-.73.03-1.73-.16-3.22-.27-2.05-.43-3.28-1.14-4.54-1.17-2.09-3.46-3.66-5-3.44-.52.07-.82.33-1.18.63-.46.38-1.22,1.02-2.28.55-1.03-.46-1.38-1.35-2.92-6.11l-.24-.75c-.78-2.44-1.03-3.09-1.36-3.33-.63-.43-1.58-.23-2.03.22-.21.21-.33.48-.44.74-.14.34-.52,1.24-1.48,1.08-.86-.14-1.14-.97-1.48-2.01-.2-.61-.45-1.37-.85-2.23-.63-1.37-1.18-2.56-1.84-2.88-.84-.41-2.2.59-3.19,1.66-.34.37-.59.72-.81,1.04-.4.58-1,1.44-2.04,1.09-.81-.28-1.06-1.07-1.34-1.99-.18-.59-.41-1.32-.82-2.21-.57-1.22-1.1-2.37-1.96-2.95-.8-.54-1.81-.54-2.45-.29-.42.16-.7.41-.78.69-.13.47.22,1.25.5,1.88.38.87.78,1.76.16,2.49-.67.79-1.59.35-2.2.07-.45-.21-1.01-.47-1.74-.63-.82-.18-1.84-.4-2.44.12-.53.45-.93,1.59-.67,2.71.23.98.91,1.67,1.51,2.28.66.67,1.35,1.37,1.21,2.36-.15,1.07-1.01,1.32-2.57,1.77-.3.09-.64.18-1.04.3-2.48.74-2.97,1.03-3.06,1.13-.62.98-.38,3.06.44,4.07.2.25.31.3.87.52.5.2,1.17.47,2.22,1.06,1.83,1.03,2.93,1.64,3.14,2.82.18,1.03-.48,1.61-.97,2.04-.43.38-.88.77-1.2,1.59-.33.87-.41,1.85-.22,2.83.22,1.13.67,1.9,1.01,2.34,1.1,1.46,2.72,1.79,3.9,2.04.93.19,1.61.19,2.15.18.77,0,1.64-.01,2.19.85.53.83.23,1.67-.03,2.41-.25.7-.53,1.49-.41,2.64.1,1.02.48,2.41,1.21,2.98.45.34,1,.32,1.75.21.67-.1,1.67-.25,2.2.66.45.78.03,1.54-.28,2.09-.3.55-.65,1.16-.58,2.03.03.37.25,1.49.9,2.12.6.6,1.35.6,2.42.53.9-.05,2.02-.12,2.57.88.45.82.06,1.56-.25,2.16-.28.53-.6,1.13-.61,2.04-.03,1.47.68,3.27,1.47,3.7.44.24,1.02-.02,1.78-.41.66-.34,1.78-.92,2.53,0,.52.63.31,1.36.14,1.94-.16.53-.33,1.13-.19,1.9.2,1.1,1,2.3,1.72,2.62.44.19.87.03,1.47-.23.53-.23,1.52-.66,2.21.18.51.62.31,1.33.16,1.9-.15.53-.31,1.14-.2,1.99.17,1.32.62,1.91.88,2.15.52.48,1.44.64,2.12.63.86-.28,2.74-.82,3.58.41.45.67.25,1.37.09,1.94-.14.51-.3,1.08-.19,1.86.16,1.16.79,2.03.98,2.27.86,1.08,1.97,1.3,2.78,1.45,1.46.29,2.63-.14,3.35-.54l.98,1.74c-1.01.57-2.66,1.16-4.71.76-.69-.14-1.82-.36-2.9-1.15Z"/><path class="cls-2" d="m1382.4,409.73c2.57-.16,5.69.04,7.87,1.63,2.65,1.94,2.42,4.79,4.47,5.25,1.64.37,2.32-1.55,5.22-1.83,2.37-.23,5.25.71,6.79,2.32,2.26,2.35.64,5.11,2.4,5.83,1.02.42,1.73-.45,5.14-1.04,2.09-.36,3.45-.6,5.06-.26,2.61.55,5.21,2.5,5.55,4.57.26,1.62-1.03,2.36-.34,3.15.44.5,1.31.59,5.97.64,3.54.04,4.3,0,4.97.53.96.76,1.19,2.24.66,3.25-.46.88-1.33,1.13-1.16,1.47.21.43,1.71.12,3.98.42,1.76.23,3.15.42,3.89,1.21,1.37,1.47-.22,4.24-.5,4.72-.74,1.29-1.57,1.81-1.25,2.26.37.5,1.64.11,3.98.42,1.42.19,2.87.39,3.89,1.21,1.65,1.32,1.84,3.97.49,4.83-1.3.82-3.67-.26-4.06.36-.27.43.85.99,1.74,2.57.49.86,1.17,2.07.66,3.25-.45,1.05-1.78,1.94-3.23,2.04-2.36.18-3.89-1.79-4.89-1.32-.48.23-.36.79-.34,3.15.04,3.25-.17,3.64-.42,3.94-1.02,1.19-3.54,1.7-5.14,1.04-.98-.4-.89-.94-2.73-2.68-1.35-1.28-2.1-1.98-2.82-1.89-.99.12-.62,1.59-2.32,2.94-.29.23-1.38,1.06-3.15,1.26-.38.04-1.64.17-2.98-.32-2.07-.74-3.02-2.44-3.64-3.57-1.13-2.03-.83-3.14-1.65-3.36-1.03-.28-1.7,1.42-4.23,1.94-.44.09-2.65.5-3.98-.42-1.55-1.07-.82-3.17-1.65-3.36-.75-.17-1.23,1.59-3.23,2.04-.08.02-1.7.36-2.98-.32-2.12-1.12-1.41-4.02-2.56-4.25-.84-.17-1.21,1.37-3.23,2.04-1.59.53-3.96.44-4.97-.53-1.36-1.3.26-3.7-.58-4.04-.6-.25-1.32,1.04-3.15,1.26-1.35.16-3.09-.28-3.89-1.21-1.1-1.28.04-2.97-.66-3.25-.57-.23-1.26.93-3.15,1.26-.36.06-1.87.33-2.98-.32-1.3-.75-1.73-2.56-1.74-2.57.03-1.82-.35-2.35-.74-2.47-.7-.21-1.31.95-3.15,1.26-1.49.25-2.77-.23-2.98-.32-1.63-.64-2.3-1.88-2.73-2.68-.91-1.69-.75-3.23-.58-4.04"/><path class="cls-3" d="m1362.97,444.68c-1.08-.8-1.63-1.81-1.96-2.43-1-1.84-.92-3.59-.67-4.73l1.96.42c-.17.81-.23,2.05.48,3.36.39.73.93,1.72,2.22,2.22.2.08,1.26.46,2.45.26.78-.13,1.28-.45,1.72-.74.5-.32,1.11-.72,1.88-.49,1.42.43,1.47,2.39,1.46,3.29.11.36.49,1.41,1.24,1.84.3.17,1,.43,2.31.2.84-.15,1.37-.48,1.84-.78.5-.32,1.12-.72,1.86-.42,1.01.41.89,1.48.82,2.06-.07.65-.1,1.11.22,1.47.52.6,1.9,1,3.02.87.78-.09,1.3-.44,1.76-.74.51-.34,1.13-.76,1.89-.44,1.1.45.88,1.68.75,2.42-.15.85-.23,1.47.14,1.82.64.61,2.57.77,3.96.3.86-.29,1.34-.77,1.76-1.19.48-.48,1.07-1.07,1.98-.88,1.12.23,1.39,1.32,1.61,2.2.26,1.05.48,1.76,1.23,2.15.8.42,1.93.31,2.3.23.84-.19,1.33-.7,1.76-1.16.44-.46,1.03-1.09,1.91-.89,1.02.23,1.18,1.24,1.28,1.9.12.75.21,1.26.72,1.61.76.53,2.2.47,3.21.27,1.13-.23,1.8-.73,2.4-1.18.63-.47,1.34-1,2.29-.75.99.27,1.24,1.1,1.46,1.84.16.52.35,1.17.81,2,.59,1.06,1.39,2.5,3.11,3.12.53.19,1.4.39,2.54.26,1-.11,1.91-.47,2.64-1.05.69-.55.93-1.09,1.16-1.61.26-.59.62-1.4,1.66-1.53,1.19-.15,2.11.72,3.63,2.16.87.82,1.33,1.39,1.67,1.8.38.46.46.56.75.68,1.2.49,3.26.1,4-.77.07-.13.21-.68.18-3.27,0-.41-.01-.77-.02-1.08-.03-1.63-.05-2.52.93-2.98.9-.42,1.77.02,2.61.46.76.39,1.63.84,2.63.77,1.14-.09,2.11-.8,2.39-1.44.31-.73-.2-1.64-.61-2.37-.37-.65-.79-1.11-1.12-1.48-.46-.5-1.14-1.25-.59-2.12.51-.81,1.49-.7,2.43-.59.68.08,1.53.18,1.95-.08.24-.15.4-.5.42-.95.04-.69-.26-1.65-1.01-2.25-.8-.63-2.07-.82-3.4-1-.97-.13-1.74-.13-2.36-.13-.96,0-1.79,0-2.3-.69-.64-.88,0-1.72.44-2.27.23-.3.5-.64.75-1.08.73-1.26,1.28-2.86.64-3.54-.49-.53-1.79-.7-3.29-.9-.94-.12-1.74-.14-2.39-.15-1.1-.02-1.97-.04-2.36-.82-.44-.87.31-1.5.59-1.74.22-.18.44-.37.58-.64.3-.57.21-1.54-.39-2.01-.33-.28-1.02-.28-3.59-.31h-.77c-5.01-.06-5.96-.14-6.7-.98-.77-.87-.39-1.79-.16-2.34.18-.43.34-.8.25-1.31-.25-1.54-2.43-3.26-4.77-3.75-1.41-.3-2.64-.09-4.68.26-1.48.26-2.43.57-3.13.8-.93.31-1.67.55-2.56.18-1.4-.57-1.52-1.91-1.61-2.98-.09-1.03-.19-2.1-1.13-3.08-1.3-1.36-3.87-2.22-5.97-2.01-1.25.12-1.99.59-2.7,1.05-.77.49-1.64,1.04-2.84.77-1.5-.34-2.12-1.52-2.71-2.66-.5-.95-1.01-1.94-2.11-2.75h-.01c-1.58-1.16-4.01-1.65-7.22-1.46l-.12-2c3.69-.23,6.56.39,8.52,1.83l.02.02c1.47,1.08,2.15,2.39,2.7,3.43.53,1.01.81,1.51,1.38,1.64.36.08.62-.06,1.33-.5.78-.5,1.85-1.18,3.58-1.35,2.7-.27,5.9.84,7.61,2.62,1.43,1.49,1.57,3.1,1.68,4.28.09,1,.15,1.22.38,1.31.19.08.4.03,1.18-.23.75-.25,1.78-.59,3.41-.87,2.11-.37,3.64-.63,5.43-.25,2.74.58,5.89,2.67,6.33,5.39.17,1.08-.16,1.88-.38,2.4-.04.09-.08.19-.11.28.59.21,3.21.24,5.15.26h.77c3.09.04,3.91.02,4.81.74,1.3,1.02,1.71,3,.93,4.5-.05.1-.11.19-.16.28.61.01,1.36.05,2.22.16,1.88.25,3.51.46,4.49,1.52,1.21,1.29,1.08,3.39-.37,5.9-.24.42-.49.76-.7,1.04.03,0,.05,0,.08,0,.64,0,1.52,0,2.62.15,1.55.21,3.15.41,4.38,1.42,1.17.93,1.84,2.44,1.75,3.93-.06,1.1-.56,2.02-1.35,2.53-.86.54-1.91.52-2.79.43.26.32.54.71.8,1.17.53.94,1.41,2.5.71,4.14-.61,1.42-2.29,2.51-4.08,2.64-1.57.12-2.8-.52-3.7-.98-.2-.1-.44-.23-.63-.31,0,.27,0,.64.01,1.02,0,.32.01.68.02,1.1.04,3.42-.17,4.02-.66,4.6-1.29,1.51-4.28,2.14-6.28,1.32-.78-.32-1.12-.74-1.55-1.27-.3-.37-.72-.88-1.49-1.61-.74-.7-1.57-1.49-1.92-1.61-.05.09-.11.23-.16.34-.27.61-.67,1.52-1.75,2.38-1.02.81-2.29,1.32-3.66,1.47-1.52.17-2.7-.11-3.43-.37-2.43-.87-3.52-2.85-4.18-4.03-.57-1.02-.8-1.82-.98-2.4-.04-.14-.09-.31-.14-.43-.12.08-.33.24-.5.37-.65.48-1.62,1.21-3.19,1.54-.91.19-3.18.5-4.75-.58-1.1-.77-1.38-1.9-1.52-2.7-.53.55-1.31,1.24-2.58,1.53-.21.05-2.08.44-3.67-.41-1.59-.84-1.98-2.41-2.23-3.44-.04-.14-.08-.33-.13-.48-.04.04-.07.07-.11.11-.49.49-1.24,1.24-2.55,1.68-1.9.63-4.65.52-5.98-.76-1.03-.98-.93-2.32-.78-3.26-.52.31-1.21.64-2.13.75-1.55.19-3.69-.29-4.77-1.55-.71-.83-.78-1.75-.74-2.47-.51.3-1.2.64-2.14.8-1.46.26-2.72.1-3.66-.44-1.39-.8-1.99-2.44-2.17-3.06l-.07-.13v-.26c.02-.7-.04-1.11-.09-1.34-.05.03-.1.07-.15.1-.51.33-1.29.83-2.48,1.03-1.67.28-3.11-.22-3.51-.37-.5-.19-.92-.44-1.28-.7Z"/><path class="cls-4" d="m1201.74,309.06c-22.21-24.88-31.39-35.09-32.73-36.46-.04-.04-.18-.19-.37-.39-.72-.8-2.11-2.51-2.6-4.6-.17-.72-.57-2.44.32-3.08,1.41-1.01,6.14,1.43,9.72,3.47,11.49,6.55,28,19.02,36.51,25.58"/><path class="cls-4" d="m1201.36,309.39c-20.24-22.67-31.24-34.93-32.71-36.44-.04-.04-.19-.19-.38-.4-.98-1.08-2.24-2.79-2.72-4.83-.19-.83-.64-2.77.52-3.6,1.31-.94,4.38.09,10.26,3.45,10.64,6.06,25.76,17.28,36.57,25.62l-.61.79c-10.78-8.32-25.86-19.51-36.45-25.54-6.82-3.89-8.68-3.86-9.19-3.5-.62.44-.25,2.04-.13,2.56.43,1.83,1.59,3.39,2.48,4.38.18.2.32.34.36.38,1.48,1.52,12.5,13.79,32.75,36.47l-.75.67Z"/><path class="cls-4" d="m1200.9,309.63l1.67-1.14c-20.54-23.02-31.26-34.96-32.77-36.5-.04-.04-.17-.17-.33-.35-.84-.92-1.92-2.38-2.32-4.07-.38-1.62-.16-2.06,0-2.17.11-.08,1.25-.63,8.45,3.47,10.51,6,25.58,17.16,36.34,25.47l1.3-1.49c-10.84-8.36-26.01-19.6-36.67-25.69-6.27-3.57-9.46-4.58-11-3.48-1.35.97-.86,3.08-.65,3.99.51,2.17,1.85,3.99,2.89,5.13.2.22.36.38.4.42,1.46,1.5,12.46,13.75,32.69,36.42Z"/><path class="cls-4" d="m1200.82,310.29l-.29-.33c-20.22-22.66-31.22-34.91-32.68-36.4-.04-.04-.21-.21-.41-.44-1.08-1.19-2.47-3.08-3-5.36-.23-1-.78-3.35.84-4.51,1.75-1.25,4.98-.29,11.54,3.45,10.75,6.14,25.91,17.38,36.73,25.73l.42.32-1.95,2.25-.37-.29c-10.72-8.27-25.72-19.4-36.29-25.43-5.78-3.29-7.51-3.49-7.89-3.48-.03.15-.07.58.17,1.63.37,1.59,1.4,2.97,2.2,3.85.16.17.28.3.32.34,1.52,1.55,12.24,13.5,32.79,36.52l.38.42-2.51,1.71Zm-.02-26.22c-8.41-6.19-17.41-12.46-24.48-16.49-5.91-3.37-9.14-4.45-10.46-3.5-1.08.77-.64,2.66-.45,3.46.48,2.07,1.77,3.81,2.77,4.91.19.21.34.37.39.41,1.46,1.5,12.37,13.64,32.41,36.11l.84-.57c-20.29-22.74-30.88-34.53-32.38-36.06-.03-.03-.17-.18-.35-.37-.88-.97-2.01-2.5-2.43-4.3-.35-1.51-.29-2.35.2-2.69,1.07-.77,5.48,1.45,8.99,3.45,10.49,5.99,25.31,16.96,36.03,25.22l.64-.74c-3.56-2.74-7.57-5.78-11.72-8.84Z"/><path class="cls-4" d="m1391.12,389.2c10.22,2.5,30.08,5.92,49.75-1.04,9.48-3.35,13.65-4.16,13.51-6.65-.13-2.29-3.37-5.33-6.58-6.35-2.49-.8-4.56-.25-5.26-.08-8,2-16.96,1.45-25.39,2.37-6.01.66-14.94.56-27.2-3.13"/><path class="cls-4" d="m1389.46,390.31c.13-.73.26-1.47.4-2.2,26.38,1.33,45.77.55,50.67-.89.79-.23,3.13-1.09,4.88-1.68,5.01-1.69,8.03-2.72,7.96-3.97-.09-1.64-2.82-4.48-5.89-5.46-2.18-.69-3.99-.24-4.67-.07-5.21,1.3-10.81,1.55-16.22,1.79-3.09.14-6.28.28-9.34.61-8.3.91-17.59-.16-27.6-3.17l.58-1.92c9.75,2.93,18.77,3.98,26.8,3.09,3.12-.34,6.34-.49,9.46-.62,5.32-.24,10.82-.48,15.79-1.72.79-.2,3.09-.77,5.81.09,3.31,1.06,7.11,4.29,7.27,7.25.15,2.77-2.81,3.77-9.31,5.97-2.25.76-4.11,1.47-4.86,1.67-5.71,1.52-25.28,2.12-51.74,1.2Z"/><path class="cls-4" d="m1233.5,275.63c-5.43-9.02-14.58-26.96-13.78-47.81.39-10.04-.08-14.27,2.34-14.87,2.23-.56,6.09,1.64,8.02,4.4,1.5,2.14,1.59,4.28,1.63,5,.47,8.23,3.66,16.63,5.27,24.94,1.16,5.93,3.9,14.43,11.07,25.04"/><path class="cls-4" d="m1233.07,275.88c-6.73-11.19-14.6-28.61-13.85-48.09.07-1.92.12-3.63.15-5.14.16-6.6.24-9.61,2.56-10.2,2.6-.65,6.66,1.89,8.55,4.6,1.55,2.22,1.68,4.4,1.72,5.22.3,5.21,1.7,10.55,3.06,15.73.79,3.01,1.61,6.13,2.21,9.19,1.56,8,5.25,16.36,10.99,24.86l-.83.56c-5.81-8.61-9.56-17.1-11.14-25.23-.59-3.03-1.4-6.13-2.19-9.13-1.37-5.22-2.79-10.62-3.09-15.88-.04-.78-.15-2.75-1.54-4.74-1.86-2.66-5.5-4.7-7.49-4.2-1.58.4-1.66,3.36-1.81,9.25-.04,1.51-.08,3.23-.15,5.15-.74,19.23,7.05,36.47,13.71,47.54l-.86.52Z"/><path class="cls-4" d="m1232.93,277.54c.66-.34,1.32-.69,1.98-1.03-9.1-24.79-14.12-43.54-14.2-48.65-.01-.82.11-3.32.16-5.16.13-5.28.21-8.47,1.43-8.78,1.59-.4,5.12,1.37,6.96,4,1.31,1.87,1.41,3.74,1.45,4.44.3,5.36,1.73,10.78,3.11,16.02.79,2.99,1.6,6.08,2.19,9.1,1.6,8.2,5.37,16.75,11.22,25.41l1.66-1.12c-5.7-8.44-9.37-16.74-10.91-24.67-.6-3.08-1.42-6.2-2.21-9.22-1.35-5.15-2.75-10.47-3.04-15.59-.05-.82-.18-3.18-1.81-5.52-1.99-2.85-6.21-5.52-9.08-4.79-2.69.68-2.77,3.81-2.94,10.67-.06,2.37-.19,4.36-.15,5.14.25,5.91,5.48,24.77,14.21,49.76Z"/><path class="cls-4" d="m1232.65,278.25l-.19-.55c-8.39-24-13.98-43.58-14.24-49.91-.02-.46.01-1.32.06-2.4.03-.81.07-1.75.1-2.77.18-7.12.26-10.37,3.32-11.14,3.12-.78,7.49,1.95,9.62,4.99,1.72,2.46,1.86,4.95,1.9,5.77.29,5.07,1.68,10.36,3.03,15.49.79,3.02,1.62,6.15,2.22,9.26,1.53,7.87,5.18,16.11,10.84,24.49l.28.41-2.49,1.68-.28-.41c-5.89-8.72-9.69-17.33-11.29-25.6-.59-3.01-1.4-6.09-2.18-9.06-1.39-5.27-2.82-10.72-3.12-16.12-.04-.67-.14-2.43-1.36-4.18-1.84-2.63-5.16-4.12-6.42-3.8-.85.21-.94,3.96-1.05,8.31-.02.76-.05,1.64-.08,2.46-.04,1.14-.08,2.21-.07,2.68.08,5.02,5.07,23.72,14.17,48.49l.15.41-2.89,1.5Zm-4.88-63.91c-1.91-1.41-4.17-2.3-5.84-1.88-2.32.58-2.4,3.6-2.56,10.2-.03,1.02-.06,1.97-.1,2.78-.04,1.06-.08,1.9-.06,2.32.25,6.09,5.87,25.77,13.99,49.07l1.08-.56c-9.04-24.67-14-43.33-14.08-48.4,0-.5.03-1.53.07-2.73.03-.82.06-1.69.08-2.45.15-5.89.22-8.85,1.81-9.25,1.95-.49,5.66,1.59,7.49,4.2,1.39,1.99,1.5,3.96,1.54,4.7.3,5.31,1.72,10.7,3.09,15.92.79,3,1.6,6.09,2.19,9.13,1.56,8,5.21,16.34,10.86,24.81l.83-.56c-5.58-8.35-9.18-16.57-10.71-24.44-.6-3.08-1.42-6.19-2.21-9.19-1.36-5.17-2.77-10.52-3.06-15.69-.04-.75-.17-3.04-1.72-5.26-.68-.97-1.64-1.93-2.71-2.72Z"/><path class="cls-4" d="m1382.97,345.26c6.3-3.91,11.49-7.31,15.27-9.83,13.46-8.97,6.13-4.91,27.31-20.72,5.6-4.18,10.36-7.64,9.67-11.32-.35-1.85-2.02-3.43-3.71-4.05-2.28-.84-11.19,4.08-23.36,10.87-10.38,5.79-23.14,12.95-36.18,19.06"/><path class="cls-4" d="m1275.22,270.31c1.87-7.18,3.57-13.14,4.85-17.5,4.57-15.52,2.87-7.31,11.68-32.24,2.33-6.59,4.22-12.16,7.94-12.6,1.87-.22,3.87.91,4.97,2.34,1.48,1.93-.57,11.9-3.44,25.53-2.45,11.63-5.49,25.94-7.45,40.21"/><path class="cls-4" d="m1368.84,430.71c31.67,10.46,44.68,14.83,46.48,15.51.05.02.24.09.51.18,1.02.35,3.14.94,5.26.55.73-.13,2.47-.45,2.7-1.52.36-1.69-3.76-5.06-7.06-7.54-10.58-7.93-28.6-18.12-38-23.3"/><path class="cls-4" d="m1368.68,431.18l.31-.95c29.28,9.68,44.49,14.75,46.5,15.52.05.02.24.09.49.18,1.27.43,3.16.87,5.01.54.53-.1,2.14-.39,2.3-1.14.13-.61-.59-2.32-6.87-7.03-9.74-7.28-26.01-16.68-37.95-23.27l.48-.88c11.96,6.6,28.27,16,38.06,23.34,5.42,4.06,7.59,6.47,7.25,8.04-.3,1.4-2.26,1.76-3.1,1.91-2.06.38-4.13-.1-5.51-.57-.27-.09-.47-.17-.52-.19-1.96-.75-17.59-5.96-46.45-15.5Z"/><path class="cls-4" d="m1368.65,431.7l.38-1.99c29.29,9.68,44.51,14.76,46.53,15.53.05.02.22.09.46.16,1.18.4,2.95.82,4.66.5,1.64-.3,1.95-.67,1.99-.86.03-.13.08-1.4-6.55-6.37-9.69-7.25-25.93-16.63-37.84-23.2l.85-1.78c11.99,6.61,28.34,16.05,38.17,23.41,5.77,4.33,7.97,6.85,7.57,8.71-.35,1.62-2.49,2.01-3.4,2.18-2.2.4-4.4-.11-5.86-.6-.28-.09-.49-.18-.55-.2-1.96-.75-17.57-5.96-46.42-15.49Z"/><path class="cls-4" d="m1368.07,432.04l.57-2.98.54.18c29.3,9.68,44.52,14.76,46.55,15.54.05.02.22.08.44.16,1.13.38,2.8.78,4.41.48,1.05-.19,1.44-.4,1.56-.49-.14-.36-1-1.86-6.33-5.85-9.75-7.3-25.92-16.62-37.78-23.16l-.41-.23,1.28-2.69.46.26c11.97,6.6,28.33,16.02,38.23,23.45,6.03,4.52,8.21,7.11,7.76,9.21-.42,1.95-2.79,2.38-3.8,2.57-2.3.42-4.59-.11-6.11-.62-.26-.09-.46-.16-.54-.19-1.97-.75-17.59-5.96-46.43-15.49l-.42-.14Zm1.34-1.67l-.19,1c28.59,9.45,44.07,14.61,46.03,15.36.1.04.29.11.53.19,1.41.48,3.52.97,5.61.59.81-.15,2.72-.5,3-1.79.34-1.59-1.93-4.12-7.38-8.2-9.73-7.3-25.75-16.54-37.65-23.12l-.42.88c11.84,6.54,27.82,15.76,37.48,23.01,3.23,2.42,7.02,5.58,6.74,6.88-.12.58-.86.97-2.39,1.25-1.82.33-3.67-.1-4.91-.52-.24-.08-.43-.15-.48-.17-2-.76-17.04-5.78-45.97-15.34Z"/><ellipse class="cls-6" cx="1294.8" cy="357.33" rx="81" ry="105.5" transform="translate(239.35 1188.12) rotate(-53.64)"/><path class="cls-4" d="m1245.88,423.77c-47.51-34.98-64.22-93.24-37.25-129.88,26.97-36.63,87.57-37.97,135.08-2.99,47.51,34.98,64.22,93.24,37.25,129.88s-87.57,37.97-135.08,2.99Zm96.05-130.45c-46.18-34-104.89-32.94-130.88,2.36-25.99,35.3-9.57,91.68,36.61,125.68,46.18,34,104.89,32.94,130.88-2.36,25.99-35.3,9.57-91.68-36.61-125.68Z"/><ellipse class="cls-5" cx="1247.7" cy="301.54" rx="23" ry="20.5" transform="translate(265.1 1127.49) rotate(-53.64)"/><path d="m1233.47,320.87c-9.55-7.03-10.93-21.42-3.08-32.07,7.85-10.66,22-13.61,31.54-6.58,9.55,7.03,10.93,21.42,3.08,32.07s-22,13.61-31.54,6.58Zm27.27-37.04c-8.66-6.38-21.55-3.61-28.75,6.15-7.19,9.77-6,22.9,2.66,29.28,8.66,6.38,21.55,3.61,28.75-6.15,7.19-9.77,6-22.9-2.66-29.28Z"/><ellipse class="cls-5" cx="1358.83" cy="383.37" rx="23" ry="20.5" transform="translate(244.45 1250.28) rotate(-53.64)"/><path d="m1344.6,402.69c-9.55-7.03-10.93-21.42-3.08-32.07,7.85-10.66,22-13.61,31.54-6.58,9.55,7.03,10.93,21.42,3.08,32.07-7.85,10.66-22,13.61-31.54,6.58Zm27.27-37.04c-8.66-6.38-21.55-3.61-28.75,6.15-7.19,9.77-6,22.9,2.66,29.28,8.66,6.38,21.55,3.61,28.75-6.15,7.19-9.77,6-22.9-2.66-29.28Z"/><ellipse cx="1248.11" cy="301.84" rx="18" ry="17" transform="translate(265.03 1127.93) rotate(-53.64)"/><path d="m1236.99,316.94c-7.88-5.8-9.31-17.3-3.18-25.62,6.13-8.33,17.53-10.38,25.41-4.57,7.88,5.8,9.31,17.3,3.18,25.62s-17.53,10.38-25.41,4.57Zm21.34-28.99c-7.22-5.31-17.67-3.4-23.31,4.26s-4.36,18.21,2.86,23.53c7.22,5.31,17.67,3.4,23.31-4.26,5.64-7.66,4.36-18.21-2.86-23.53Z"/><ellipse cx="1359.23" cy="383.66" rx="18" ry="17" transform="translate(244.38 1250.73) rotate(-53.64)"/><path d="m1348.12,398.76c-7.88-5.8-9.31-17.3-3.18-25.62,6.13-8.33,17.53-10.38,25.41-4.57,7.88,5.8,9.31,17.3,3.18,25.62-6.13,8.33-17.53,10.38-25.41,4.57Zm21.34-28.99c-7.22-5.31-17.67-3.4-23.31,4.26s-4.36,18.21,2.86,23.53c7.22,5.31,17.67,3.4,23.31-4.26,5.64-7.66,4.36-18.21-2.86-23.53Z"/><ellipse class="cls-5" cx="1257.74" cy="299.88" rx="6.68" ry="5.61" transform="translate(324.54 1194.84) rotate(-57.21)"/><path class="cls-5" d="m1251.7,303.21c-.75-2-.49-4.5.89-6.64,2.14-3.33,6.19-4.55,9.03-2.73,2.83,1.82,3.39,6.02,1.25,9.35h0c-2.14,3.33-6.19,4.55-9.03,2.73-1.01-.65-1.73-1.6-2.14-2.71Zm11.13-6.31c-.34-.91-.93-1.69-1.75-2.22-2.37-1.53-5.8-.44-7.64,2.43-1.85,2.87-1.42,6.44.95,7.96,2.37,1.53,5.8.44,7.64-2.43h0c1.2-1.87,1.44-4.04.8-5.75Z"/><ellipse class="cls-5" cx="1368.54" cy="381.86" rx="6.75" ry="5.27" transform="translate(477.74 1488.75) rotate(-66.76)"/><path class="cls-5" d="m1364.1,387.41c-1.68-1.8-2.11-4.91-.86-7.82h0c1.58-3.67,5.24-5.64,8.16-4.39,2.92,1.25,4.02,5.26,2.44,8.94-1.58,3.67-5.24,5.64-8.16,4.39-.61-.26-1.14-.64-1.58-1.12Zm.06-7.43c-1.36,3.17-.5,6.59,1.91,7.62,2.42,1.04,5.49-.7,6.85-3.86s.5-6.59-1.91-7.62c-2.42-1.04-5.49.7-6.85,3.86h0Z"/><path d="m1262.38,400.52c-14.62-10.76-20.27-30.11-13.75-47.05l1.87.72c-6.2,16.1-.83,34.49,13.07,44.72s33.05,9.9,46.58-.8l1.24,1.57c-14.24,11.26-34.39,11.61-49.01.84Z"/><ellipse class="cls-8" cx="1220.72" cy="326.38" rx="12" ry="20.5" transform="translate(234.11 1115.87) rotate(-53.64)"/><path class="cls-8" d="m1213.31,336.45c-9.32-6.87-13.59-16.97-9.5-22.52s15-4.48,24.32,2.39c9.32,6.87,13.59,16.97,9.5,22.52s-15,4.48-24.32-2.39Zm14.23-19.33c-8.88-6.54-19.16-7.7-22.92-2.6-3.76,5.11.41,14.58,9.29,21.12,8.88,6.54,19.16,7.7,22.92,2.6s-.41-14.58-9.29-21.12Z"/><ellipse class="cls-8" cx="1347.95" cy="420.06" rx="12" ry="20.5" transform="translate(210.47 1256.46) rotate(-53.64)"/><path class="cls-8" d="m1340.54,430.13c-9.32-6.87-13.59-16.97-9.5-22.52,4.09-5.55,15-4.48,24.32,2.39,9.32,6.87,13.59,16.97,9.5,22.52-4.09,5.55-15,4.48-24.32-2.39Zm14.23-19.33c-8.88-6.54-19.16-7.7-22.92-2.6s.41,14.58,9.29,21.12c8.88,6.54,19.16,7.7,22.92,2.6s-.41-14.58-9.29-21.12Z"/></g></svg>